<?xml version="1.0" standalone="no"?>
<!DOCTYPE svg PUBLIC "-//W3C//DTD SVG 1.1//EN" "http://www.w3.org/Graphics/SVG/1.1/DTD/svg11.dtd" >
<svg xmlns="http://www.w3.org/2000/svg">
<metadata>Generated by IcoMoon</metadata>
<defs>
<font id="icomoon" horiz-adv-x="1024">
<font-face units-per-em="1024" ascent="960" descent="-64" />
<missing-glyph horiz-adv-x="1024" />
<glyph unicode="&#x20;" horiz-adv-x="512" d="" />
<glyph unicode="&#xe901;" glyph-name="address-book" horiz-adv-x="896" d="M872 640c13.2 0 24 10.8 24 24v80c0 13.2-10.8 24-24 24h-40v96c0 53-43 96-96 96h-640c-53 0-96-43-96-96v-832c0-53 43-96 96-96h640c53 0 96 43 96 96v96h40c13.2 0 24 10.8 24 24v80c0 13.2-10.8 24-24 24h-40v128h40c13.2 0 24 10.8 24 24v80c0 13.2-10.8 24-24 24h-40v128h40zM416 704c70.6 0 128-57.4 128-128s-57.4-128-128-128-128 57.4-128 128 57.4 128 128 128zM640 230.4c0-21.2-20-38.4-44.8-38.4h-358.4c-24.8 0-44.8 17.2-44.8 38.4v38.4c0 63.6 60.2 115.2 134.4 115.2h10c24.6-10.2 51.4-16 79.6-16s55.2 5.8 79.6 16h10c74.2 0 134.4-51.6 134.4-115.2v-38.4z" />
<glyph unicode="&#xe902;" glyph-name="address-card" horiz-adv-x="1152" d="M1056 896h-960c-53 0-96-43-96-96v-704c0-53 43-96 96-96h960c53 0 96 43 96 96v704c0 53-43 96-96 96zM352 704c70.6 0 128-57.4 128-128s-57.4-128-128-128-128 57.4-128 128 57.4 128 128 128zM576 230.4c0-21.2-20-38.4-44.8-38.4h-358.4c-24.8 0-44.8 17.2-44.8 38.4v38.4c0 63.6 60.2 115.2 134.4 115.2h10c24.6-10.2 51.4-16 79.6-16s55.2 5.8 79.6 16h10c74.2 0 134.4-51.6 134.4-115.2v-38.4zM1024 336c0-8.8-7.2-16-16-16h-288c-8.8 0-16 7.2-16 16v32c0 8.8 7.2 16 16 16h288c8.8 0 16-7.2 16-16v-32zM1024 464c0-8.8-7.2-16-16-16h-288c-8.8 0-16 7.2-16 16v32c0 8.8 7.2 16 16 16h288c8.8 0 16-7.2 16-16v-32zM1024 592c0-8.8-7.2-16-16-16h-288c-8.8 0-16 7.2-16 16v32c0 8.8 7.2 16 16 16h288c8.8 0 16-7.2 16-16v-32z" />
<glyph unicode="&#xe90c;" glyph-name="anchor" horiz-adv-x="1152" d="M25.942 256h64.788c43.614-205.47 273.158-320 485.27-320 212.458 0 441.706 114.76 485.27 320h64.788c21.382 0 32.090 25.852 16.97 40.97l-134.058 134.058c-9.372 9.372-24.568 9.372-33.942 0l-134.058-134.058c-15.12-15.12-4.412-40.97 16.97-40.97h70.292c-40.58-108.634-169.926-173.176-288.234-188.030v380.030h104c13.254 0 24 10.746 24 24v80c0 13.254-10.746 24-24 24h-104v10.94c74.562 26.356 127.99 97.45 128 181.036 0.012 104.48-84.788 190.548-189.258 192.004-107.294 1.498-194.74-85.030-194.74-191.98 0-83.596 53.432-154.7 128-181.060v-10.94h-104c-13.254 0-24-10.746-24-24v-80c0-13.254 10.746-24 24-24h104v-380.030c-117.872 14.798-247.64 79.358-288.234 188.030h70.292c21.382 0 32.090 25.852 16.97 40.97l-134.058 134.058c-9.372 9.372-24.568 9.372-33.942 0l-134.058-134.058c-15.118-15.118-4.41-40.97 16.972-40.97zM576 832c35.29 0 64-28.71 64-64s-28.71-64-64-64-64 28.71-64 64 28.71 64 64 64z" />
<glyph unicode="&#xe90d;" glyph-name="angle-double-down" horiz-adv-x="640" d="M286 447.4l-272 272c-18.8 18.8-18.8 49.2 0 67.8l45.2 45.2c18.8 18.8 49.2 18.8 67.8 0l192.8-192.8 192.8 192.8c18.8 18.8 49.2 18.8 67.8 0l45.6-45c18.8-18.8 18.8-49.2 0-67.8l-272-272c-18.8-19-49.2-19-68-0.2zM354 63.4l272 272c18.8 18.8 18.8 49.2 0 67.8l-45.2 45.2c-18.8 18.8-49.2 18.8-67.8 0l-193-192.6-192.8 192.8c-18.8 18.8-49.2 18.8-67.8 0l-45.4-45.2c-18.8-18.8-18.8-49.2 0-67.8l272-272c18.8-19 49.2-19 68-0.2z" />
<glyph unicode="&#xe90e;" glyph-name="angle-double-left" horiz-adv-x="896" d="M447.4 482l272 272c18.8 18.8 49.2 18.8 67.8 0l45.2-45.2c18.8-18.8 18.8-49.2 0-67.8l-192.6-193 192.8-192.8c18.8-18.8 18.8-49.2 0-67.8l-45.2-45.4c-18.8-18.8-49.2-18.8-67.8 0l-272 272c-19 18.8-19 49.2-0.2 68zM63.4 414l272-272c18.8-18.8 49.2-18.8 67.8 0l45.2 45.2c18.8 18.8 18.8 49.2 0 67.8l-192.6 193 192.8 192.8c18.8 18.8 18.8 49.2 0 67.8l-45.2 45.4c-18.8 18.8-49.2 18.8-67.8 0l-272-272c-19-18.8-19-49.2-0.2-68z" />
<glyph unicode="&#xe90f;" glyph-name="angle-double-right" horiz-adv-x="896" d="M448.6 414l-272-272c-18.8-18.8-49.2-18.8-67.8 0l-45.2 45.2c-18.8 18.8-18.8 49.2 0 67.8l192.8 192.8-192.8 192.8c-18.8 18.8-18.8 49.2 0 67.8l45 45.6c18.8 18.8 49.2 18.8 67.8 0l272-272c19-18.8 19-49.2 0.2-68zM832.6 482l-272 272c-18.8 18.8-49.2 18.8-67.8 0l-45.2-45.2c-18.8-18.8-18.8-49.2 0-67.8l192.8-192.8-192.8-192.8c-18.8-18.8-18.8-49.2 0-67.8l45.2-45.2c18.8-18.8 49.2-18.8 67.8 0l272 272c18.8 18.4 18.8 48.8 0 67.6z" />
<glyph unicode="&#xe910;" glyph-name="angle-double-up" horiz-adv-x="640" d="M354 448.6l272-272c18.8-18.8 18.8-49.2 0-67.8l-45.2-45.2c-18.8-18.8-49.2-18.8-67.8 0l-193 192.6-192.8-192.8c-18.8-18.8-49.2-18.8-67.8 0l-45.4 45.2c-18.8 18.8-18.8 49.2 0 67.8l272 272c18.8 19 49.2 19 68 0.2zM286 832.6l-272-272c-18.8-18.8-18.8-49.2 0-67.8l45.2-45.2c18.8-18.8 49.2-18.8 67.8 0l192.8 192.8 192.8-192.8c18.8-18.8 49.2-18.8 67.8 0l45.2 45.2c18.8 18.8 18.8 49.2 0 67.8l-272 272c-18.4 18.8-48.8 18.8-67.6 0z" />
<glyph unicode="&#xe911;" glyph-name="angle-down" horiz-adv-x="640" d="M286 255.4l-272 272c-18.8 18.8-18.8 49.2 0 67.8l45.2 45.2c18.8 18.8 49.2 18.8 67.8 0l192.8-192.8 192.8 192.8c18.8 18.8 49.2 18.8 67.8 0l45.2-45.2c18.8-18.8 18.8-49.2 0-67.8l-272-272c-18.4-18.8-48.8-18.8-67.6 0z" />
<glyph unicode="&#xe912;" glyph-name="angle-left" horiz-adv-x="512" d="M63.4 482l272 272c18.8 18.8 49.2 18.8 67.8 0l45.2-45.2c18.8-18.8 18.8-49.2 0-67.8l-192.6-193 192.8-192.8c18.8-18.8 18.8-49.2 0-67.8l-45.2-45.4c-18.8-18.8-49.2-18.8-67.8 0l-272 272c-19 18.8-19 49.2-0.2 68z" />
<glyph unicode="&#xe913;" glyph-name="angle-right" horiz-adv-x="512" d="M448.6 414l-272-272c-18.8-18.8-49.2-18.8-67.8 0l-45.2 45.2c-18.8 18.8-18.8 49.2 0 67.8l192.8 192.8-192.8 192.8c-18.8 18.8-18.8 49.2 0 67.8l45 45.6c18.8 18.8 49.2 18.8 67.8 0l272-272c19-18.8 19-49.2 0.2-68z" />
<glyph unicode="&#xe914;" glyph-name="angle-up" horiz-adv-x="640" d="M354 640.6l272-272c18.8-18.8 18.8-49.2 0-67.8l-45.2-45.2c-18.8-18.8-49.2-18.8-67.8 0l-193 192.6-192.8-192.8c-18.8-18.8-49.2-18.8-67.8 0l-45.4 45.2c-18.8 18.8-18.8 49.2 0 67.8l272 272c18.8 19 49.2 19 68 0.2z" />
<glyph unicode="&#xe917;" glyph-name="apple-alt" horiz-adv-x="896" d="M701.7 702c51.94-9.34 94.54-37.34 127.84-84 29.3-41.34 49.28-93.34 59.92-156 9.34-57.34 8.64-114.66-2-172-15.98-94.66-47.94-174-95.88-238-57.28-77.34-129.18-116-215.74-116-21.32 0-44.6 6.66-69.92 20-17.32 10.66-36.62 16-57.94 16s-40.6-5.34-57.94-16c-25.32-13.34-48.6-20-69.92-20-86.56 0-158.46 38.66-215.74 116-47.94 64-79.9 143.34-95.88 238-10.64 57.34-11.34 114.66-2 172 10.64 62.66 30.62 114.66 59.92 156 33.3 46.66 75.9 74.66 127.84 84 31.96 5.34 75.9 0.66 131.84-14 47.94-13.34 88.56-29.34 121.86-48 33.3 18.66 73.92 34.66 121.86 48 55.96 14.66 99.92 19.34 131.88 14zM591.82 784c-18.64-17.34-43.3-30-73.92-38-21.32-6.66-44.6-10-69.92-10l-29.96 2c-2.66 18.66-2.66 40 0 64 5.34 48 20.64 84.66 45.94 110 18.64 17.34 43.3 30 73.92 38 21.32 6.66 44.6 10 69.92 10l29.96-2 2-30c0-25.34-3.34-48.66-9.98-70-7.98-30.66-20.62-55.34-37.96-74z" />
<glyph unicode="&#xe91a;" glyph-name="arrow-alt-circle-down" d="M1008 448c0-274-222-496-496-496s-496 222-496 496 222 496 496 496 496-222 496-496zM424 680v-232h-141.8c-21.4 0-32.2-26-17-41l229.8-228.6c9.4-9.4 24.4-9.4 33.8 0l229.8 228.6c15.2 15.2 4.4 41-17 41h-141.6v232c0 13.2-10.8 24-24 24h-128c-13.2 0-24-10.8-24-24z" />
<glyph unicode="&#xe91b;" glyph-name="arrow-alt-circle-left" d="M512-48c-274 0-496 222-496 496s222 496 496 496 496-222 496-496-222-496-496-496zM744 536h-232v141.8c0 21.4-26 32.2-41 17l-228.6-229.8c-9.4-9.4-9.4-24.4 0-33.8l228.6-229.8c15.2-15.2 41-4.4 41 17v141.6h232c13.2 0 24 10.8 24 24v128c0 13.2-10.8 24-24 24z" />
<glyph unicode="&#xe91c;" glyph-name="arrow-alt-circle-right" d="M512 944c274 0 496-222 496-496s-222-496-496-496-496 222-496 496 222 496 496 496zM280 360h232v-141.8c0-21.4 26-32.2 41-17l228.6 229.8c9.4 9.4 9.4 24.4 0 33.8l-228.6 230c-15.2 15.2-41 4.4-41-17v-141.8h-232c-13.2 0-24-10.8-24-24v-128c0-13.2 10.8-24 24-24z" />
<glyph unicode="&#xe91d;" glyph-name="arrow-alt-circle-up" d="M16 448c0 274 222 496 496 496s496-222 496-496-222-496-496-496-496 222-496 496zM600 216v232h141.8c21.4 0 32.2 26 17 41l-229.8 228.6c-9.4 9.4-24.4 9.4-33.8 0l-230-228.6c-15.2-15.2-4.4-41 17-41h141.8v-232c0-13.2 10.8-24 24-24h128c13.2 0 24 10.8 24 24z" />
<glyph unicode="&#xe91e;" glyph-name="arrow-circle-down" d="M1008 448c0-274-222-496-496-496s-496 222-496 496 222 496 496 496 496-222 496-496zM720.8 505.8l-144.8-151v365.2c0 26.6-21.4 48-48 48h-32c-26.6 0-48-21.4-48-48v-365.2l-144.8 151c-18.6 19.4-49.6 19.8-68.6 0.8l-21.8-22c-18.8-18.8-18.8-49.2 0-67.8l265.2-265.4c18.8-18.8 49.2-18.8 67.8 0l265.4 265.4c18.8 18.8 18.8 49.2 0 67.8l-21.8 22c-19 19-50 18.6-68.6-0.8z" />
<glyph unicode="&#xe91f;" glyph-name="arrow-circle-left" d="M512-48c-274 0-496 222-496 496s222 496 496 496 496-222 496-496-222-496-496-496zM569.8 239.2l-151 144.8h365.2c26.6 0 48 21.4 48 48v32c0 26.6-21.4 48-48 48h-365.2l151 144.8c19.4 18.6 19.8 49.6 0.8 68.6l-22 21.8c-18.8 18.8-49.2 18.8-67.8 0l-265.4-265.2c-18.8-18.8-18.8-49.2 0-67.8l265.4-265.4c18.8-18.8 49.2-18.8 67.8 0l22 21.8c19 19 18.6 50-0.8 68.6z" />
<glyph unicode="&#xe920;" glyph-name="arrow-circle-right" d="M512 944c274 0 496-222 496-496s-222-496-496-496-496 222-496 496 222 496 496 496zM454.2 656.8l151-144.8h-365.2c-26.6 0-48-21.4-48-48v-32c0-26.6 21.4-48 48-48h365.2l-151-144.8c-19.4-18.6-19.8-49.6-0.8-68.6l22-21.8c18.8-18.8 49.2-18.8 67.8 0l265.4 265.2c18.8 18.8 18.8 49.2 0 67.8l-265.4 265.6c-18.8 18.8-49.2 18.8-67.8 0l-22-21.8c-19-19.2-18.6-50.2 0.8-68.8z" />
<glyph unicode="&#xe921;" glyph-name="arrow-circle-up" d="M16 448c0 274 222 496 496 496s496-222 496-496-222-496-496-496-496 222-496 496zM303.2 390.2l144.8 151v-365.2c0-26.6 21.4-48 48-48h32c26.6 0 48 21.4 48 48v365.2l144.8-151c18.6-19.4 49.6-19.8 68.6-0.8l21.8 22c18.8 18.8 18.8 49.2 0 67.8l-265.2 265.4c-18.8 18.8-49.2 18.8-67.8 0l-265.6-265.4c-18.8-18.8-18.8-49.2 0-67.8l21.8-22c19.2-19 50.2-18.6 68.8 0.8z" />
<glyph unicode="&#xe922;" glyph-name="arrow-down" horiz-adv-x="896" d="M826.2 515l44.4-44.4c18.8-18.8 18.8-49.2 0-67.8l-388.6-388.8c-18.8-18.8-49.2-18.8-67.8 0l-388.8 388.8c-18.8 18.8-18.8 49.2 0 67.8l44.4 44.4c19 19 50 18.6 68.6-0.8l229.6-241v574.8c0 26.6 21.4 48 48 48h64c26.6 0 48-21.4 48-48v-574.8l229.6 241c18.6 19.6 49.6 20 68.6 0.8z" />
<glyph unicode="&#xe923;" glyph-name="arrow-left" horiz-adv-x="896" d="M515 69.8l-44.4-44.4c-18.8-18.8-49.2-18.8-67.8 0l-388.8 388.6c-18.8 18.8-18.8 49.2 0 67.8l388.8 388.8c18.8 18.8 49.2 18.8 67.8 0l44.4-44.4c19-19 18.6-50-0.8-68.6l-241-229.6h574.8c26.6 0 48-21.4 48-48v-64c0-26.6-21.4-48-48-48h-574.8l241-229.6c19.6-18.6 20-49.6 0.8-68.6z" />
<glyph unicode="&#xe924;" glyph-name="arrow-right" horiz-adv-x="896" d="M381 826.2l44.4 44.4c18.8 18.8 49.2 18.8 67.8 0l388.8-388.6c18.8-18.8 18.8-49.2 0-67.8l-388.8-388.8c-18.8-18.8-49.2-18.8-67.8 0l-44.4 44.4c-19 19-18.6 50 0.8 68.6l241 229.6h-574.8c-26.6 0-48 21.4-48 48v64c0 26.6 21.4 48 48 48h574.8l-241 229.6c-19.6 18.6-20 49.6-0.8 68.6z" />
<glyph unicode="&#xe928;" glyph-name="arrow-up" horiz-adv-x="896" d="M69.8 381l-44.4 44.4c-18.8 18.8-18.8 49.2 0 67.8l388.6 388.8c18.8 18.8 49.2 18.8 67.8 0l388.6-388.6c18.8-18.8 18.8-49.2 0-67.8l-44.4-44.4c-19-19-50-18.6-68.6 0.8l-229.4 240.8v-574.8c0-26.6-21.4-48-48-48h-64c-26.6 0-48 21.4-48 48v574.8l-229.6-241c-18.6-19.6-49.6-20-68.6-0.8z" />
<glyph unicode="&#xe92a;" glyph-name="asterisk" d="M956.42 291.814l-284.42 156.186 284.42 156.186c23.59 12.954 31.922 42.768 18.464 66.074l-38.96 67.482c-13.456 23.306-43.44 30.998-66.454 17.046l-277.47-168.224 6.95 324.408c0.576 26.906-21.076 49.028-47.99 49.028h-77.92c-26.912 0-48.566-22.122-47.988-49.028l6.948-324.408-277.47 168.222c-23.012 13.952-52.998 6.26-66.454-17.046l-38.96-67.482c-13.456-23.306-5.124-53.12 18.466-66.074l284.418-156.184-284.42-156.186c-23.59-12.954-31.922-42.768-18.464-66.074l38.96-67.482c13.456-23.306 43.442-30.998 66.454-17.046l277.47 168.224-6.95-324.408c-0.576-26.906 21.078-49.028 47.99-49.028h77.922c26.912 0 48.566 22.122 47.99 49.028l-6.952 324.408 277.47-168.222c23.012-13.952 52.998-6.26 66.454 17.046l38.96 67.482c13.456 23.306 5.126 53.118-18.464 66.072z" />
<glyph unicode="&#xe92b;" glyph-name="at" d="M512 944c-274.118 0-496-221.838-496-496 0-274.118 221.838-496 496-496 96.308 0 190.684 28.28 270.816 80.446 24.010 15.63 29.25 48.576 11.104 70.744l-20.354 24.866c-15.342 18.742-42.358 23.334-62.746 10.258-58.98-37.828-128.192-58.314-198.82-58.314-202.916 0-368 165.084-368 368s165.084 368 368 368c200.278 0 368-115.238 368-320 0-77.572-42.186-159.484-116.34-167.386-34.698 0.908-33.82 25.714-26.952 60.048l46.866 242.22c5.732 29.618-16.958 57.118-47.124 57.118h-89.962c0 0 0 0-0.001 0-13.857 0-25.279-10.425-26.851-23.859l-0.012-0.127-0.020-0.184c-29.394 35.802-80.896 43.55-119.942 43.55-149.16 0-275.662-124.468-275.662-302.92 0-130.606 73.57-211.74 192-211.74 53.968 0 114.738 31.274 149.982 76.666 19.044-68.208 81.226-68.206 141.42-68.206 217.816 0 300.598 143.224 300.598 294.82 0 272.694-219.954 448-496 448zM468.64 335.14c-44.498 0-72.14 31.246-72.14 81.542 0 89.986 61.558 145.458 117.26 145.458 44.584 0 71.202-30.482 71.202-81.54 0-90.122-67.75-145.46-116.322-145.46z" />
<glyph unicode="&#xe92f;" glyph-name="award" horiz-adv-x="768" d="M194.24 234.74c-17.38 17.38-8.32 12.48-50.24 23.7-19.020 5.1-35.74 14.9-50.86 26.64l-90.74-222.48c-8.78-21.54 7.62-44.94 30.86-44.060l105.38 4.020 72.48-76.56c16-16.88 44.080-11.62 52.86 9.92l104.1 255.24c-21.68-12.080-45.74-19.16-70.62-19.16-39 0-75.64 15.18-103.22 42.74zM765.6 62.6l-90.74 222.48c-15.12-11.76-31.84-21.54-50.86-26.64-42.14-11.28-32.9-6.36-50.24-23.7-27.58-27.56-64.24-42.74-103.24-42.74-24.88 0-48.94 7.1-70.62 19.16l104.1-255.24c8.78-21.54 36.88-26.8 52.86-9.92l72.5 76.56 105.38-4.020c23.24-0.88 39.64 22.54 30.86 44.060zM526 280c30.56 31.1 34.060 28.42 77.58 40.28 27.78 7.58 49.5 29.68 56.94 57.96 14.96 56.8 11.080 49.94 51.9 91.5 20.34 20.7 28.28 50.88 20.84 79.16-14.94 56.76-14.96 48.84 0 105.66 7.44 28.28-0.5 58.46-20.84 79.16-40.82 41.56-36.94 34.72-51.9 91.5-7.44 28.28-29.16 50.38-56.94 57.96-55.76 15.22-49.040 11.24-89.9 52.82-20.34 20.7-50 28.8-77.78 21.22-55.74-15.2-47.96-15.22-103.8 0-27.78 7.58-57.44-0.5-77.78-21.22-40.82-41.56-34.1-37.6-89.88-52.82-27.78-7.58-49.5-29.68-56.94-57.96-14.94-56.78-11.080-49.94-51.9-91.5-20.34-20.7-28.3-50.88-20.84-79.16 14.94-56.72 14.96-48.8 0-105.64-7.44-28.28 0.5-58.46 20.84-79.18 40.82-41.56 36.94-34.7 51.9-91.5 7.44-28.28 29.16-50.38 56.94-57.96 44.76-12.2 48.1-10.28 77.56-40.28 26.46-26.94 67.68-31.76 99.48-11.64 12.043 7.753 26.748 12.36 42.53 12.36s30.487-4.607 42.845-12.549l-0.315 0.19c31.78-20.12 73-15.3 99.46 11.64zM195.32 608.080c0 106.060 84.48 192.040 188.68 192.040s188.68-85.98 188.68-192.040-84.48-192.040-188.68-192.040-188.68 85.98-188.68 192.040z" />
<glyph unicode="&#xe93b;" glyph-name="bars" horiz-adv-x="896" d="M32 696h832c17.674 0 32 14.326 32 32v80c0 17.674-14.326 32-32 32h-832c-17.674 0-32-14.326-32-32v-80c0-17.674 14.326-32 32-32zM32 376h832c17.674 0 32 14.326 32 32v80c0 17.674-14.326 32-32 32h-832c-17.674 0-32-14.326-32-32v-80c0-17.674 14.326-32 32-32zM32 56h832c17.674 0 32 14.326 32 32v80c0 17.674-14.326 32-32 32h-832c-17.674 0-32-14.326-32-32v-80c0-17.674 14.326-32 32-32z" />
<glyph unicode="&#xe946;" glyph-name="bell" horiz-adv-x="896" d="M448-64c70.64 0 127.94 57.3 127.94 128h-255.88c0-70.7 57.3-128 127.94-128zM878.78 235.42c-38.64 41.52-110.94 103.98-110.94 308.58 0 155.4-108.96 279.8-255.88 310.32v41.68c0 35.34-28.64 64-63.96 64s-63.96-28.66-63.96-64v-41.68c-146.92-30.52-255.88-154.92-255.88-310.32 0-204.6-72.3-267.060-110.94-308.58-12-12.9-17.32-28.32-17.22-43.42 0.22-32.8 25.96-64 64.2-64h767.6c38.24 0 64 31.2 64.2 64 0.1 15.1-5.22 30.54-17.22 43.42z" />
<glyph unicode="&#xe948;" glyph-name="bezier-curve" horiz-adv-x="1280" d="M736 896h-192c-35.34 0-64-28.66-64-64v-192c0-35.34 28.66-64 64-64h192c35.34 0 64 28.66 64 64v192c0 35.34-28.66 64-64 64zM416 784h-169.5c-19 46.88-64.82 80-118.5 80-70.68 0-128-57.3-128-128s57.32-128 128-128c53.68 0 99.5 33.12 118.5 80h159.46c-110.74-65.040-191.72-174.64-219.080-304h98.8c22.6 83.22 73.54 154.42 142.080 203.12-7.4 16.16-11.76 33.98-11.76 52.88v144zM320 320h-192c-35.34 0-64-28.66-64-64v-192c0-35.34 28.66-64 64-64h192c35.34 0 64 28.66 64 64v192c0 35.34-28.66 64-64 64zM1152 864c-53.68 0-99.5-33.12-118.5-80h-169.5v-144c0-18.9-4.38-36.72-11.76-52.88 68.54-48.7 119.48-119.9 142.080-203.12h98.8c-27.36 129.36-108.34 238.96-219.080 304h159.46c19-46.88 64.82-80 118.5-80 70.68 0 128 57.3 128 128s-57.32 128-128 128zM1152 320h-192c-35.34 0-64-28.66-64-64v-192c0-35.34 28.66-64 64-64h192c35.34 0 64 28.66 64 64v192c0 35.34-28.66 64-64 64z" />
<glyph unicode="&#xe94c;" glyph-name="binoculars" d="M832 864c0 17.68-14.32 32-32 32h-128c-17.68 0-32-14.32-32-32v-96h192v96zM127.82 640.020c-5.020-187.7-120.9-228.46-127.82-488.020v-88c0-35.34 28.66-64 64-64h192c35.34 0 64 28.66 64 64v320h64v320h-192.32c-35.26 0-62.9-28.74-63.86-63.98zM896.18 640.020c-0.96 35.24-28.6 63.98-63.86 63.98h-192.32v-320h64v-320c0-35.34 28.66-64 64-64h192c35.34 0 64 28.66 64 64v88c-6.92 259.56-122.8 300.32-127.82 488.020zM352 896h-128c-17.68 0-32-14.32-32-32v-96h192v96c0 17.68-14.32 32-32 32zM448 384h128v320h-128v-320z" />
<glyph unicode="&#xe952;" glyph-name="blog" d="M344.4 506.4c-29.2 5.8-56.4-17.8-56.4-47.6v-100.8c0-20.4 14.2-36.8 33.4-44 36.4-13.6 62.6-48.8 62.6-90 0-53-43-96-96-96s-96 43-96 96v496c0 26.6-21.4 48-48 48h-96c-26.6 0-48-21.4-48-48v-496c0-179 164.2-320.4 350-281.4 108.8 22.8 196.6 110.8 219.4 219.4 34.8 165.8-74 314.4-225 344.4zM418 960c-18.4 1-34-13.6-34-32v-63.2c0-17 13.2-31 30-31.8 258.8-14 466.8-224 481.8-483 1-16.8 15-30 31.8-30h64.2c18.4 0 33 15.6 32 34-17 326.4-279.4 588.8-605.8 606zM418.6 768c-18.6 1.4-34.6-13.4-34.6-32.2v-64.2c0-16.8 13-30.6 29.6-31.8 153.6-12.6 276-136.4 289.8-290.4 1.6-16.6 15.2-29.4 31.8-29.4h64.4c18.6 0 33.6 16 32.2 34.6-16.8 220.2-193 396.4-413.2 413.4z" />
<glyph unicode="&#xe954;" glyph-name="bolt" horiz-adv-x="640" d="M592 640h-230.8l85.2 259.6c8 30.4-15 60.4-46.4 60.4h-288c-24 0-44.4-17.8-47.6-41.6l-64-480c-3.8-28.8 18.6-54.4 47.6-54.4h237.4l-92.2-389c-7.2-30.4 16-59 46.6-59 16.8 0 32.8 8.8 41.6 24l352 608c18.6 31.8-4.4 72-41.4 72z" />
<glyph unicode="&#xe958;" glyph-name="book" horiz-adv-x="896" d="M896 240v672c0 26.6-21.4 48-48 48h-656c-106 0-192-86-192-192v-640c0-106 86-192 192-192h656c26.6 0 48 21.4 48 48v32c0 15-7 28.6-17.8 37.4-8.4 30.8-8.4 118.6 0 149.4 10.8 8.6 17.8 22.2 17.8 37.2zM256 692c0 6.6 5.4 12 12 12h424c6.6 0 12-5.4 12-12v-40c0-6.6-5.4-12-12-12h-424c-6.6 0-12 5.4-12 12v40zM256 564c0 6.6 5.4 12 12 12h424c6.6 0 12-5.4 12-12v-40c0-6.6-5.4-12-12-12h-424c-6.6 0-12 5.4-12 12v40zM762.8 64h-570.8c-35.4 0-64 28.6-64 64 0 35.2 28.8 64 64 64h570.8c-3.8-34.2-3.8-93.8 0-128z" />
<glyph unicode="&#xe95a;" glyph-name="bookmark" horiz-adv-x="768" d="M0-64v928c0 53.020 42.98 96 96 96h576c53.020 0 96-42.98 96-96v-928l-384 224-384-224z" />
<glyph unicode="&#xe95c;" glyph-name="book-open" horiz-adv-x="1152" d="M1084.44 895.9c-109.6-6.22-327.44-28.86-461.92-111.18-9.28-5.68-14.54-15.78-14.54-26.34v-727.74c0-23.1 25.26-37.7 46.56-26.98 138.36 69.64 338.46 88.64 437.4 93.84 33.78 1.78 60.040 28.86 60.040 61.32v675.68c0.020 35.42-30.7 63.48-67.54 61.4zM529.46 784.72c-134.46 82.32-352.3 104.94-461.9 111.18-36.84 2.080-67.56-25.98-67.56-61.4v-675.7c0-32.48 26.26-59.56 60.040-61.32 98.98-5.2 299.18-24.22 437.54-93.9 21.24-10.7 46.42 3.88 46.42 26.92v728.24c0 10.58-5.24 20.28-14.54 25.98z" />
<glyph unicode="&#xe95d;" glyph-name="book-reader" d="M704 768c0 106.040-85.96 192-192 192s-192-85.96-192-192 85.96-192 192-192 192 85.96 192 192zM467.18 477.8c-118.66 72.64-310.86 92.6-407.58 98.1-32.5 1.84-59.6-22.92-59.6-54.18v-445.6c0-28.66 23.18-52.56 52.98-54.1 87.32-4.58 263.98-21.36 386.080-82.86 18.74-9.44 40.96 3.42 40.96 23.74v491.98c-0.020 9.34-4.64 17.9-12.84 22.92zM964.4 575.9c-96.7-5.48-288.92-25.46-407.56-98.1-8.2-5.020-12.82-13.92-12.82-23.26v-491.58c0-20.38 22.28-33.26 41.080-23.8 122.080 61.44 298.64 78.22 385.94 82.8 29.8 1.56 52.98 25.46 52.98 54.12v445.64c-0.020 31.26-27.12 56.020-59.62 54.18z" />
<glyph unicode="&#xe964;" glyph-name="box-open" horiz-adv-x="1280" d="M851.4 448c-33.8 0-65.6 18-82.8 46.8l-128.6 213.2-128.4-213.2c-17.4-29-49.2-47-83-47-9 0-18 1.2-26.6 3.8l-274 78.4v-356c0-29.4 20-55 48.4-62l432.4-108.2c20.4-5 41.8-5 62 0l432.8 108.2c28.4 7.2 48.4 32.8 48.4 62v356l-274-78.2c-8.6-2.6-17.6-3.8-26.6-3.8zM1276.6 672.4l-103 205.6c-6.2 12.4-19.6 19.6-33.4 17.8l-500.2-63.8 183.4-304.2c7.6-12.6 22.8-18.6 37-14.6l395.8 113c19.8 5.8 29.4 27.8 20.4 46.2zM106.4 878l-103-205.6c-9.2-18.4 0.6-40.4 20.2-46l395.8-113c14.2-4 29.4 2 37 14.6l183.6 304-500.4 63.8c-13.8 1.6-27-5.4-33.2-17.8z" />
<glyph unicode="&#xe968;" glyph-name="briefcase" d="M640 288c0-17.68-14.32-32-32-32h-192c-17.68 0-32 14.32-32 32v96h-384v-288c0-51.2 44.8-96 96-96h832c51.2 0 96 44.8 96 96v288h-384v-96zM928 704h-160v96c0 51.2-44.8 96-96 96h-320c-51.2 0-96-44.8-96-96v-96h-160c-51.2 0-96-44.8-96-96v-160h1024v160c0 51.2-44.8 96-96 96zM640 704h-256v64h256v-64z" />
<glyph unicode="&#xe96b;" glyph-name="broom" horiz-adv-x="1280" d="M512.94 526.46l173.46-218.36s-33.2-204.72-153.14-300.24c-119.94-95.56-533.26-68.24-533.26-68.24s7.6 46.28 22 110.86l189.24 224.34c7.94 9.4-1.74 23.24-13.3 19l-120.8-44.18c28.88 83.32 65.44 160.080 109.2 194.94 119.94 95.52 326.6 81.88 326.6 81.88zM1273.060 897.94l-39.72 50c-10.98 13.8-31.040 16.1-44.82 5.12l-464.96-355.6-68.28 85.94c-10.18 12.82-30.28 10.42-37.18-4.42l-50.66-109.1 173.46-218.36 117.6 24.9c16 3.38 22.84 22.4 12.68 35.2l-68.18 85.84 464.96 355.6c13.78 10.96 16.080 31.060 5.1 44.88z" />
<glyph unicode="&#xe96c;" glyph-name="brush" horiz-adv-x="768" d="M704 960h-640c-35.34 0-64-28.66-64-64v-448h768v448c0 35.34-28.66 64-64 64zM0 320c0-70.7 57.32-128 128-128h128v-128c0-70.7 57.32-128 128-128s128 57.3 128 128v128h128c70.68 0 128 57.3 128 128v64h-768v-64zM384 112c26.5 0 48-21.48 48-48 0-26.5-21.5-48-48-48s-48 21.5-48 48c0 26.52 21.5 48 48 48z" />
<glyph unicode="&#xe96e;" glyph-name="building" horiz-adv-x="896" d="M872 0h-40v912c0 26.51-21.49 48-48 48h-672c-26.51 0-48-21.49-48-48v-912h-40c-13.254 0-24-10.746-24-24v-40h896v40c0 13.254-10.746 24-24 24zM256 808c0 13.254 10.746 24 24 24h80c13.254 0 24-10.746 24-24v-80c0-13.254-10.746-24-24-24h-80c-13.254 0-24 10.746-24 24v80zM256 616c0 13.254 10.746 24 24 24h80c13.254 0 24-10.746 24-24v-80c0-13.254-10.746-24-24-24h-80c-13.254 0-24 10.746-24 24v80zM360 320h-80c-13.254 0-24 10.746-24 24v80c0 13.254 10.746 24 24 24h80c13.254 0 24-10.746 24-24v-80c0-13.254-10.746-24-24-24zM512 0h-128v168c0 13.254 10.746 24 24 24h80c13.254 0 24-10.746 24-24v-168zM640 344c0-13.254-10.746-24-24-24h-80c-13.254 0-24 10.746-24 24v80c0 13.254 10.746 24 24 24h80c13.254 0 24-10.746 24-24v-80zM640 536c0-13.254-10.746-24-24-24h-80c-13.254 0-24 10.746-24 24v80c0 13.254 10.746 24 24 24h80c13.254 0 24-10.746 24-24v-80zM640 728c0-13.254-10.746-24-24-24h-80c-13.254 0-24 10.746-24 24v80c0 13.254 10.746 24 24 24h80c13.254 0 24-10.746 24-24v-80z" />
<glyph unicode="&#xe970;" glyph-name="bullseye" horiz-adv-x="992" d="M496 944c-273.94 0-496-222.060-496-496s222.060-496 496-496 496 222.060 496 496-222.060 496-496 496zM496 80c-203.38 0-368 164.58-368 368 0 203.38 164.58 368 368 368 203.38 0 368-164.58 368-368 0-203.38-164.58-368-368-368zM496 704c-141.38 0-256-114.62-256-256s114.62-256 256-256 256 114.62 256 256-114.62 256-256 256zM496 320c-70.58 0-128 57.42-128 128s57.42 128 128 128 128-57.42 128-128-57.42-128-128-128z" />
<glyph unicode="&#xe971;" glyph-name="burn" horiz-adv-x="768" d="M384 960c-224.6-202.6-384-441.8-384-601 0-249 158-423 384-423s384 174 384 423c0 159.8-160.4 399.2-384 601zM384 64c-113 0-192 78-192 189.6 0 27 9.2 123 192 322.4 182.8-199.4 192-295.4 192-322.4 0-111.6-79-189.6-192-189.6z" />
<glyph unicode="&#xe973;" glyph-name="bus-alt" d="M976 704h-16v96c0 89.6-198.4 160-448 160s-448-70.4-448-160v-96h-16c-26.5 0-48-21.48-48-48v-160c0-26.5 21.5-48 48-48h16v-320c0-35.34 28.66-64 64-64v-64c0-35.34 28.66-64 64-64h64c35.34 0 64 28.66 64 64v64h384v-64c0-35.34 28.66-64 64-64h64c35.34 0 64 28.66 64 64v64h12.8c32 0 51.2 25.6 51.2 51.2v332.8h16c26.5 0 48 21.5 48 48v160c0 26.52-21.5 48-48 48zM320 816c0 8.84 7.16 16 16 16h352c8.84 0 16-7.16 16-16v-32c0-8.84-7.16-16-16-16h-352c-8.84 0-16 7.16-16 16v32zM224 160c-35.34 0-64 28.66-64 64s28.66 64 64 64 64-28.66 64-64-28.66-64-64-64zM480 384h-224c-35.34 0-64 28.66-64 64v192c0 35.34 28.66 64 64 64h224v-320zM544 384v320h224c35.34 0 64-28.66 64-64v-192c0-35.34-28.66-64-64-64h-224zM800 160c-35.34 0-64 28.66-64 64s28.66 64 64 64 64-28.66 64-64-28.66-64-64-64z" />
<glyph unicode="&#xe976;" glyph-name="calendar" horiz-adv-x="896" d="M24 576h848c13.2 0 24-10.8 24-24v-520c0-53-43-96-96-96h-704c-53 0-96 43-96 96v520c0 13.2 10.8 24 24 24zM896 664v72c0 53-43 96-96 96h-96v104c0 13.2-10.8 24-24 24h-80c-13.2 0-24-10.8-24-24v-104h-256v104c0 13.2-10.8 24-24 24h-80c-13.2 0-24-10.8-24-24v-104h-96c-53 0-96-43-96-96v-72c0-13.2 10.8-24 24-24h848c13.2 0 24 10.8 24 24z" />
<glyph unicode="&#xe977;" glyph-name="calendar-alt" horiz-adv-x="896" d="M0 32c0-53 43-96 96-96h704c53 0 96 43 96 96v544h-896v-544zM640 424c0 13.2 10.8 24 24 24h80c13.2 0 24-10.8 24-24v-80c0-13.2-10.8-24-24-24h-80c-13.2 0-24 10.8-24 24v80zM640 168c0 13.2 10.8 24 24 24h80c13.2 0 24-10.8 24-24v-80c0-13.2-10.8-24-24-24h-80c-13.2 0-24 10.8-24 24v80zM384 424c0 13.2 10.8 24 24 24h80c13.2 0 24-10.8 24-24v-80c0-13.2-10.8-24-24-24h-80c-13.2 0-24 10.8-24 24v80zM384 168c0 13.2 10.8 24 24 24h80c13.2 0 24-10.8 24-24v-80c0-13.2-10.8-24-24-24h-80c-13.2 0-24 10.8-24 24v80zM128 424c0 13.2 10.8 24 24 24h80c13.2 0 24-10.8 24-24v-80c0-13.2-10.8-24-24-24h-80c-13.2 0-24 10.8-24 24v80zM128 168c0 13.2 10.8 24 24 24h80c13.2 0 24-10.8 24-24v-80c0-13.2-10.8-24-24-24h-80c-13.2 0-24 10.8-24 24v80zM800 832h-96v96c0 17.6-14.4 32-32 32h-64c-17.6 0-32-14.4-32-32v-96h-256v96c0 17.6-14.4 32-32 32h-64c-17.6 0-32-14.4-32-32v-96h-96c-53 0-96-43-96-96v-96h896v96c0 53-43 96-96 96z" />
<glyph unicode="&#xe97e;" glyph-name="camera" d="M1024 672v-576c0-53-43-96-96-96h-832c-53 0-96 43-96 96v576c0 53 43 96 96 96h176l24.6 65.8c14 37.4 49.8 62.2 89.8 62.2h251c40 0 75.8-24.8 89.8-62.2l24.8-65.8h176c53 0 96-43 96-96zM752 384c0 132.4-107.6 240-240 240s-240-107.6-240-240 107.6-240 240-240 240 107.6 240 240zM688 384c0-97-79-176-176-176s-176 79-176 176 79 176 176 176 176-79 176-176z" />
<glyph unicode="&#xe97f;" glyph-name="camera-retro" d="M96 896c-53 0-96-43-96-96v-704c0-53 43-96 96-96h832c53 0 96 43 96 96v704c0 53-43 96-96 96h-832zM96 832h212c6.6 0 12-5.4 12-12v-40c0-6.6-5.4-12-12-12h-232c-6.6 0-12 5.4-12 12v20c0 17.6 14.4 32 32 32zM948 640h-872c-6.6 0-12 5.4-12 12v72c0 6.6 5.4 12 12 12h276l60.4 90.6c2.2 3.4 6 5.4 10 5.4h505.6c17.6 0 32-14.4 32-32v-148c0-6.6-5.4-12-12-12zM512 112c-132.4 0-240 107.6-240 240s107.6 240 240 240 240-107.6 240-240-107.6-240-240-240zM512 528c-97 0-176-79-176-176s79-176 176-176 176 79 176 176-79 176-176 176zM416 320c-17.6 0-32 14.4-32 32 0 70.6 57.4 128 128 128 17.6 0 32-14.4 32-32s-14.4-32-32-32c-35.2 0-64-28.8-64-64 0-17.6-14.4-32-32-32z" />
<glyph unicode="&#xe983;" glyph-name="capsules" horiz-adv-x="1152" d="M1110.6 359.8l-262.2 374.6c-44.6 63.6-115.6 97.6-187.6 97.6-45.2 0-91-13.4-131-41.4-39.4-27.6-67.4-65.6-83-107.6-5.8 118.6-102.8 213-222.8 213-123.8 0-224-100.2-224-224v-448c0-123.8 100.2-224 224-224s224 100.2 224 224v298.2c6.6-17.2 14.6-34.2 25.6-50l262.4-374.6c44.4-63.6 115.4-97.6 187.6-97.6 45.4 0 91 13.4 131 41.4 103.4 72.4 128.4 215 56 318.4zM320 448h-192v224c0 53 43 96 96 96s96-43 96-96v-224zM709.6 358.2l-131.2 187.4c-15.4 22-21.4 48.8-16.6 75.2 4.6 26.4 19.4 49.6 41.4 65 17 12 37 18.2 57.6 18.2 33 0 63.8-16 82.6-43l131.2-187.4-165-115.4z" />
<glyph unicode="&#xe984;" glyph-name="car" d="M999.98 608h-119.74l-33.28 83.2c-34.2 85.54-115.82 140.8-207.96 140.8h-254c-92.12 0-173.76-55.26-207.98-140.8l-33.28-83.2h-119.72c-15.62 0-27.080-14.68-23.28-29.82l12-48c2.66-10.68 12.26-18.18 23.28-18.18h40.14c-26.86-23.46-44.16-57.56-44.16-96v-96c0-32.24 12.32-61.34 32-83.86v-108.14c0-35.34 28.66-64 64-64h64c35.34 0 64 28.66 64 64v64h512v-64c0-35.34 28.66-64 64-64h64c35.34 0 64 28.66 64 64v108.14c19.68 22.5 32 51.6 32 83.86v96c0 38.44-17.3 72.54-44.14 96h40.14c11.020 0 20.62 7.5 23.28 18.18l12 48c3.78 15.14-7.68 29.82-23.3 29.82zM295.86 643.66c14.58 36.44 49.88 60.34 89.14 60.34h254c39.26 0 74.56-23.9 89.14-60.34l39.86-99.66h-512l39.86 99.66zM192 320.4c-38.4 0-64 25.52-64 63.8s25.6 63.8 64 63.8 96-57.42 96-95.7-57.6-31.9-96-31.9zM832 320.4c-38.4 0-96-6.38-96 31.9s57.6 95.7 96 95.7 64-25.52 64-63.8-25.6-63.8-64-63.8z" />
<glyph unicode="&#xe988;" glyph-name="caret-down" horiz-adv-x="640" d="M62.6 576h514.6c35.6 0 53.4-43 28.2-68.2l-257.2-257.4c-15.6-15.6-41-15.6-56.6 0l-257.2 257.4c-25.2 25.2-7.4 68.2 28.2 68.2z" />
<glyph unicode="&#xe989;" glyph-name="caret-left" horiz-adv-x="384" d="M384 705.324v-514.648c0-35.636-43.086-53.482-68.284-28.284l-257.324 257.324c-15.62 15.62-15.62 40.948 0 56.568l257.324 257.324c25.198 25.2 68.284 7.352 68.284-28.284z" />
<glyph unicode="&#xe98a;" glyph-name="caret-right" horiz-adv-x="384" d="M0 190.676v514.648c0 35.636 43.086 53.482 68.284 28.284l257.324-257.324c15.62-15.62 15.62-40.948 0-56.568l-257.324-257.324c-25.198-25.2-68.284-7.352-68.284 28.284z" />
<glyph unicode="&#xe98b;" glyph-name="caret-square-down" horiz-adv-x="896" d="M896 800v-704c0-53-43-96-96-96h-704c-53 0-96 43-96 96v704c0 53 43 96 96 96h704c53 0 96-43 96-96zM185 519l246-246c9.4-9.4 24.6-9.4 34 0l246 246c15.2 15.2 4.4 41-17 41h-492c-21.4 0-32.2-25.8-17-41z" />
<glyph unicode="&#xe98c;" glyph-name="caret-square-left" horiz-adv-x="896" d="M800 0h-704c-53.020 0-96 42.98-96 96v704c0 53.020 42.98 96 96 96h704c53.020 0 96-42.98 96-96v-704c0-53.020-42.98-96-96-96zM519.030 711.030l-246.060-246.060c-9.372-9.372-9.372-24.568 0-33.942l246.058-246.058c15.12-15.12 40.97-4.412 40.97 16.97v492.118c0.002 21.382-25.85 32.090-40.968 16.972z" />
<glyph unicode="&#xe98d;" glyph-name="caret-square-right" horiz-adv-x="896" d="M96 896h704c53.020 0 96-42.98 96-96v-704c0-53.020-42.98-96-96-96h-704c-53.020 0-96 42.98-96 96v704c0 53.020 42.98 96 96 96zM376.97 184.97l246.058 246.058c9.372 9.372 9.372 24.568 0 33.942l-246.058 246.060c-15.12 15.12-40.97 4.412-40.97-16.97v-492.118c0-21.382 25.852-32.090 40.97-16.972z" />
<glyph unicode="&#xe98e;" glyph-name="caret-square-up" horiz-adv-x="896" d="M0 96v704c0 53.020 42.98 96 96 96h704c53.020 0 96-42.98 96-96v-704c0-53.020-42.98-96-96-96h-704c-53.020 0-96 42.98-96 96zM711.030 376.97l-246.060 246.060c-9.372 9.372-24.568 9.372-33.942 0l-246.058-246.060c-15.12-15.12-4.412-40.97 16.97-40.97h492.118c21.382 0 32.090 25.852 16.972 40.97z" />
<glyph unicode="&#xe98f;" glyph-name="caret-up" horiz-adv-x="640" d="M577.324 256h-514.648c-35.636 0-53.482 43.086-28.284 68.284l257.324 257.324c15.62 15.62 40.948 15.62 56.568 0l257.324-257.324c25.2-25.198 7.352-68.284-28.284-68.284z" />
<glyph unicode="&#xe991;" glyph-name="car-side" horiz-adv-x="1280" d="M1088 576h-32l-217.56 271.96c-23.66 29.388-59.632 48.035-99.959 48.040h-427.821c-52.34 0-99.4-31.86-118.84-80.46l-95.82-244.060c-55.12-14.28-96-63.9-96-123.48v-224c0-17.68 14.32-32 32-32h96c0-106.040 85.96-192 192-192s192 85.96 192 192h256c0-106.040 85.96-192 192-192s192 85.96 192 192h96c17.68 0 32 14.32 32 32v160c0 106.040-85.96 192-192 192zM320 96c-52.94 0-96 43.060-96 96s43.060 96 96 96 96-43.060 96-96-43.060-96-96-96zM464 576h-230.14l76.8 192h153.34v-192zM560 576v192h178.48l153.6-192h-332.080zM960 96c-52.94 0-96 43.060-96 96s43.060 96 96 96 96-43.060 96-96-43.060-96-96-96z" />
<glyph unicode="&#xe993;" glyph-name="cart-plus" horiz-adv-x="1152" d="M1009.434 320h-586.29l13.090-64h536.836c30.802 0 53.632-28.602 46.806-58.638l-11.034-48.552c37.382-18.146 63.158-56.466 63.158-100.81 0-62.404-51.038-112.888-113.648-111.988-59.646 0.858-108.7 49.262-110.31 108.894-0.88 32.574 12.17 62.098 33.606 83.096h-419.296c20.754-20.332 33.648-48.654 33.648-80.002 0-63.626-53.056-114.862-117.34-111.876-57.080 2.65-103.502 48.77-106.502 105.834-2.316 44.068 20.872 82.91 56.102 103.172l-140.494 686.87h-139.766c-26.51 0-48 21.49-48 48v32c0 26.51 21.49 48 48 48h205.058c22.802 0 42.456-16.042 47.026-38.38l18.332-89.62h785.564c30.802 0 53.632-28.602 46.806-58.638l-94.546-416c-4.966-21.854-24.394-37.362-46.806-37.362zM816 624h-96v80c0 17.674-14.326 32-32 32h-32c-17.674 0-32-14.326-32-32v-80h-96c-17.674 0-32-14.326-32-32v-32c0-17.674 14.326-32 32-32h96v-80c0-17.674 14.326-32 32-32h32c17.674 0 32 14.326 32 32v80h96c17.674 0 32 14.326 32 32v32c0 17.674-14.326 32-32 32z" />
<glyph unicode="&#xe996;" glyph-name="certificate" d="M917.244 448.16l91.97 90.010c27.416 25.954 14.632 72.078-21.328 80.678l-125.3 31.98 35.322 124.030c9.982 35.676-23.658 69.326-59.322 59.342l-123.988-35.334-31.968 125.342c-8.46 35.398-55.1 48.344-80.65 21.336l-89.98-92.684-89.978 92.682c-25.26 26.702-72.094 14.468-80.65-21.336l-31.968-125.342-123.99 35.334c-35.674 9.988-69.302-23.674-59.322-59.342l35.322-124.030-125.3-31.98c-35.976-8.602-48.734-54.734-21.33-80.676l91.97-90.010-91.97-90.008c-27.416-25.954-14.632-72.078 21.328-80.678l125.3-31.98-35.322-124.030c-9.982-35.676 23.658-69.326 59.322-59.342l123.988 35.334 31.968-125.342c8.878-37.15 55.392-48.036 80.65-21.336l89.982 92.002 89.978-92.002c25-26.976 71.974-14.972 80.65 21.336l31.968 125.342 123.988-35.334c35.672-9.988 69.302 23.674 59.322 59.342l-35.322 124.030 125.3 31.98c35.974 8.604 48.732 54.734 21.328 80.678l-91.968 90.008z" />
<glyph unicode="&#xe998;" glyph-name="chalkboard" horiz-adv-x="1280" d="M192 832h896v-704h128v752c0 44.12-35.88 80-80 80h-992c-44.12 0-80-35.88-80-80v-752h128v704zM1248 64h-288v128h-384v-128h-544c-17.68 0-32-14.32-32-32v-64c0-17.68 14.32-32 32-32h1216c17.68 0 32 14.32 32 32v64c0 17.68-14.32 32-32 32z" />
<glyph unicode="&#xe99b;" glyph-name="chart-area" d="M1000 192c13.2 0 24-10.8 24-24v-80c0-13.2-10.8-24-24-24h-976c-13.2 0-24 10.8-24 24v720c0 13.2 10.8 24 24 24h80c13.2 0 24-10.8 24-24v-616h872zM745.4 641l-169.4-113-170.6 227.4c-10.2 13.6-31 12.6-39.8-2l-173.6-289.4v-208h768l-179.8 375.6c-6.4 13-22.8 17.4-34.8 9.4z" />
<glyph unicode="&#xe99c;" glyph-name="chart-bar" d="M665.6 320h76.8c12.8 0 25.6 12.8 25.6 25.6v268.8c0 12.8-12.8 25.6-25.6 25.6h-76.8c-12.8 0-25.6-12.8-25.6-25.6v-268.8c0-12.8 12.8-25.6 25.6-25.6zM857.6 320h76.8c12.8 0 25.6 12.8 25.6 25.6v460.8c0 12.8-12.8 25.6-25.6 25.6h-76.8c-12.8 0-25.6-12.8-25.6-25.6v-460.8c0-12.8 12.8-25.6 25.6-25.6zM281.6 320h76.8c12.8 0 25.6 12.8 25.6 25.6v140.8c0 12.8-12.8 25.6-25.6 25.6h-76.8c-12.8 0-25.6-12.8-25.6-25.6v-140.8c0-12.8 12.8-25.6 25.6-25.6zM473.6 320h76.8c12.8 0 25.6 12.8 25.6 25.6v396.8c0 12.8-12.8 25.6-25.6 25.6h-76.8c-12.8 0-25.6-12.8-25.6-25.6v-396.8c0-12.8 12.8-25.6 25.6-25.6zM992 192h-864v608c0 17.68-14.32 32-32 32h-64c-17.68 0-32-14.32-32-32v-672c0-35.34 28.66-64 64-64h928c17.68 0 32 14.32 32 32v64c0 17.68-14.32 32-32 32z" />
<glyph unicode="&#xe99d;" glyph-name="chart-line" d="M992 192h-864v608c0 17.68-14.32 32-32 32h-64c-17.68 0-32-14.32-32-32v-672c0-35.34 28.66-64 64-64h928c17.68 0 32 14.32 32 32v64c0 17.68-14.32 32-32 32zM928 768h-236.12c-42.76 0-64.18-51.7-33.94-81.94l64.8-64.8-146.74-146.76-146.74 146.74c-25 25-65.52 25-90.5 0l-137.38-137.38c-12.5-12.5-12.5-32.76 0-45.26l45.24-45.24c12.5-12.5 32.76-12.5 45.26 0l92.12 92.14 146.74-146.74c25-25 65.52-25 90.5 0l192 192 64.8-64.8c30.24-30.24 81.94-8.82 81.94 33.94v236.1c0.020 17.68-14.3 32-31.98 32z" />
<glyph unicode="&#xe99e;" glyph-name="chart-pie" horiz-adv-x="1088" d="M1055.58 384h-474.58l316.060-316.060c12.080-12.080 31.96-13.060 44.38-1.36 77.4 72.92 130.64 171.22 146.26 281.72 2.68 18.92-13.020 35.7-32.12 35.7zM1023.92 513.6c-16.48 238.92-207.4 429.84-446.32 446.32-18.24 1.26-33.6-14.12-33.6-32.4v-447.52h447.54c18.28 0 33.64 15.36 32.38 33.6zM448 384v474.58c0 19.1-16.78 34.8-35.68 32.12-238.34-33.68-420.52-241.9-412.040-491.44 8.72-256.28 229.38-466.44 485.78-463.22 100.8 1.26 193.94 33.74 270.52 88.060 15.8 11.2 16.84 34.46 3.14 48.16l-311.72 311.74z" />
<glyph unicode="&#xe99f;" glyph-name="check" d="M347.796 81.192l-332.8 332.8c-19.994 19.994-19.994 52.412 0 72.408l72.406 72.408c19.994 19.996 52.414 19.996 72.408 0l224.19-224.188 480.19 480.188c19.994 19.994 52.414 19.994 72.408 0l72.406-72.408c19.994-19.994 19.994-52.412 0-72.408l-588.8-588.802c-19.996-19.994-52.414-19.994-72.408 0.002z" />
<glyph unicode="&#xe9a0;" glyph-name="check-circle" d="M1008 448c0-273.934-222.066-496-496-496s-496 222.066-496 496 222.066 496 496 496 496-222.066 496-496zM454.628 185.372l368 368c12.496 12.496 12.496 32.758 0 45.254l-45.254 45.254c-12.496 12.498-32.758 12.498-45.256 0l-300.118-300.116-140.118 140.118c-12.496 12.496-32.758 12.496-45.256 0l-45.254-45.254c-12.496-12.496-12.496-32.758 0-45.254l208-208c12.498-12.498 32.758-12.498 45.256-0.002z" />
<glyph unicode="&#xe9a2;" glyph-name="check-square" horiz-adv-x="896" d="M800 0h-704c-53.020 0-96 42.98-96 96v704c0 53.020 42.98 96 96 96h704c53.020 0 96-42.98 96-96v-704c0-53.020-42.98-96-96-96zM390.628 196.118l368 368c12.496 12.496 12.496 32.758 0 45.254l-45.254 45.254c-12.496 12.496-32.758 12.498-45.256 0l-300.118-300.116-140.118 140.118c-12.496 12.496-32.758 12.496-45.256 0l-45.254-45.254c-12.496-12.496-12.496-32.758 0-45.254l208-208c12.498-12.5 32.758-12.5 45.256-0.002z" />
<glyph unicode="&#xe9ac;" glyph-name="chevron-circle-down" d="M1008 448c0-274-222-496-496-496s-496 222-496 496 222 496 496 496 496-222 496-496zM546 220.2l271 271c18.8 18.8 18.8 49.2 0 67.8l-34 34c-18.8 18.8-49.2 18.8-67.8 0l-203.2-203.2-203.2 203.2c-18.8 18.8-49.2 18.8-67.8 0l-34-34c-18.8-18.8-18.8-49.2 0-67.8l271-271c18.8-18.8 49.2-18.8 68 0z" />
<glyph unicode="&#xe9ad;" glyph-name="chevron-circle-left" d="M512-48c-274 0-496 222-496 496s222 496 496 496 496-222 496-496-222-496-496-496zM284.2 414l271-271c18.8-18.8 49.2-18.8 67.8 0l34 34c18.8 18.8 18.8 49.2 0 67.8l-203.2 203.2 203.2 203.2c18.8 18.8 18.8 49.2 0 67.8l-34 34c-18.8 18.8-49.2 18.8-67.8 0l-271-271c-18.8-18.8-18.8-49.2 0-68z" />
<glyph unicode="&#xe9ae;" glyph-name="chevron-circle-right" d="M512 944c274 0 496-222 496-496s-222-496-496-496-496 222-496 496 222 496 496 496zM739.8 482l-271 271c-18.8 18.8-49.2 18.8-67.8 0l-34-34c-18.8-18.8-18.8-49.2 0-67.8l203.2-203.2-203.2-203.2c-18.8-18.8-18.8-49.2 0-67.8l34-34c18.8-18.8 49.2-18.8 67.8 0l271 271c18.8 18.8 18.8 49.2 0 68z" />
<glyph unicode="&#xe9af;" glyph-name="chevron-circle-up" d="M16 448c0 274 222 496 496 496s496-222 496-496-222-496-496-496-496 222-496 496zM478 675.8l-271-271c-18.8-18.8-18.8-49.2 0-67.8l34-34c18.8-18.8 49.2-18.8 67.8 0l203.2 203.2 203.2-203.2c18.8-18.8 49.2-18.8 67.8 0l34 34c18.8 18.8 18.8 49.2 0 67.8l-271 271c-18.8 18.8-49.2 18.8-68 0z" />
<glyph unicode="&#xe9b0;" glyph-name="chevron-down" horiz-adv-x="896" d="M414.058 197.048l-388.686 388.688c-18.746 18.746-18.746 49.138 0 67.882l45.334 45.334c18.714 18.714 49.044 18.75 67.802 0.080l309.492-308.042 309.49 308.042c18.758 18.67 49.088 18.634 67.802-0.080l45.334-45.334c18.746-18.746 18.746-49.138 0-67.882l-388.684-388.688c-18.746-18.744-49.138-18.744-67.884 0z" />
<glyph unicode="&#xe9b1;" glyph-name="chevron-left" horiz-adv-x="640" d="M69.040 481.94l388.7 388.68c18.74 18.74 49.14 18.74 67.88 0l45.34-45.34c18.72-18.72 18.74-49.040 0.080-67.8l-308.060-309.48 308.040-309.5c18.68-18.76 18.64-49.080-0.080-67.8l-45.34-45.34c-18.74-18.74-49.14-18.74-67.88 0l-388.68 388.7c-18.74 18.74-18.74 49.14 0 67.88z" />
<glyph unicode="&#xe9b2;" glyph-name="chevron-right" horiz-adv-x="640" d="M570.952 414.058l-388.688-388.686c-18.746-18.746-49.138-18.746-67.882 0l-45.334 45.334c-18.714 18.714-18.75 49.044-0.080 67.802l308.042 309.492-308.042 309.49c-18.67 18.758-18.634 49.088 0.080 67.802l45.334 45.334c18.746 18.746 49.138 18.746 67.882 0l388.686-388.686c18.746-18.744 18.746-49.136 0.002-67.882z" />
<glyph unicode="&#xe9b3;" glyph-name="chevron-up" horiz-adv-x="896" d="M481.942 698.952l388.686-388.686c18.746-18.746 18.746-49.138 0-67.882l-45.334-45.334c-18.714-18.714-49.044-18.75-67.802-0.080l-309.492 308.040-309.49-308.042c-18.758-18.67-49.088-18.634-67.802 0.080l-45.334 45.334c-18.746 18.746-18.746 49.138 0 67.882l388.686 388.686c18.744 18.746 49.136 18.746 67.882 0.002z" />
<glyph unicode="&#xe9b6;" glyph-name="circle" d="M512 944c-274 0-496-222-496-496s222-496 496-496 496 222 496 496-222 496-496 496z" />
<glyph unicode="&#xe9b8;" glyph-name="city" horiz-adv-x="1280" d="M1232 576h-272v336c0 26.52-21.48 48-48 48h-288c-26.52 0-48-21.48-48-48v-144h-128v160c0 17.68-14.32 32-32 32h-32c-17.68 0-32-14.32-32-32v-160h-128v160c0 17.68-14.32 32-32 32h-32c-17.68 0-32-14.32-32-32v-160h-80c-26.52 0-48-21.48-48-48v-720c0-35.34 28.66-64 64-64h1152c35.34 0 64 28.66 64 64v528c0 26.52-21.5 48-48 48zM256 152c0-13.26-10.74-24-24-24h-80c-13.26 0-24 10.74-24 24v80c0 13.26 10.74 24 24 24h80c13.26 0 24-10.74 24-24v-80zM256 344c0-13.26-10.74-24-24-24h-80c-13.26 0-24 10.74-24 24v80c0 13.26 10.74 24 24 24h80c13.26 0 24-10.74 24-24v-80zM256 536c0-13.26-10.74-24-24-24h-80c-13.26 0-24 10.74-24 24v80c0 13.26 10.74 24 24 24h80c13.26 0 24-10.74 24-24v-80zM512 152c0-13.26-10.74-24-24-24h-80c-13.26 0-24 10.74-24 24v80c0 13.26 10.74 24 24 24h80c13.26 0 24-10.74 24-24v-80zM512 344c0-13.26-10.74-24-24-24h-80c-13.26 0-24 10.74-24 24v80c0 13.26 10.74 24 24 24h80c13.26 0 24-10.74 24-24v-80zM512 536c0-13.26-10.74-24-24-24h-80c-13.26 0-24 10.74-24 24v80c0 13.26 10.74 24 24 24h80c13.26 0 24-10.74 24-24v-80zM832 344c0-13.26-10.74-24-24-24h-80c-13.26 0-24 10.74-24 24v80c0 13.26 10.74 24 24 24h80c13.26 0 24-10.74 24-24v-80zM832 536c0-13.26-10.74-24-24-24h-80c-13.26 0-24 10.74-24 24v80c0 13.26 10.74 24 24 24h80c13.26 0 24-10.74 24-24v-80zM832 728c0-13.26-10.74-24-24-24h-80c-13.26 0-24 10.74-24 24v80c0 13.26 10.74 24 24 24h80c13.26 0 24-10.74 24-24v-80zM1152 152c0-13.26-10.74-24-24-24h-80c-13.26 0-24 10.74-24 24v80c0 13.26 10.74 24 24 24h80c13.26 0 24-10.74 24-24v-80zM1152 344c0-13.26-10.74-24-24-24h-80c-13.26 0-24 10.74-24 24v80c0 13.26 10.74 24 24 24h80c13.26 0 24-10.74 24-24v-80z" />
<glyph unicode="&#xe9bb;" glyph-name="clipboard-check" horiz-adv-x="768" d="M672 832h-160c0 70.6-57.4 128-128 128s-128-57.4-128-128h-160c-53 0-96-43-96-96v-704c0-53 43-96 96-96h576c53 0 96 43 96 96v704c0 53-43 96-96 96zM384 880c26.6 0 48-21.4 48-48s-21.4-48-48-48-48 21.4-48 48 21.4 48 48 48zM626.4 416.4l-286-283.6c-9.4-9.4-24.6-9.2-34 0.2l-165.2 166.6c-9.4 9.4-9.2 24.6 0.2 34l56.8 56.4c9.4 9.4 24.6 9.2 34-0.2l92-92.8 212 210.4c9.4 9.4 24.6 9.2 34-0.2l56.4-56.8c9.4-9.6 9.2-24.6-0.2-34z" />
<glyph unicode="&#xe9bc;" glyph-name="clipboard-list" horiz-adv-x="768" d="M672 832h-160c0 70.6-57.4 128-128 128s-128-57.4-128-128h-160c-53 0-96-43-96-96v-704c0-53 43-96 96-96h576c53 0 96 43 96 96v704c0 53-43 96-96 96zM192 112c-26.6 0-48 21.4-48 48s21.4 48 48 48 48-21.4 48-48-21.4-48-48-48zM192 304c-26.6 0-48 21.4-48 48s21.4 48 48 48 48-21.4 48-48-21.4-48-48-48zM192 496c-26.6 0-48 21.4-48 48s21.4 48 48 48 48-21.4 48-48-21.4-48-48-48zM384 880c26.6 0 48-21.4 48-48s-21.4-48-48-48-48 21.4-48 48 21.4 48 48 48zM640 144c0-8.8-7.2-16-16-16h-288c-8.8 0-16 7.2-16 16v32c0 8.8 7.2 16 16 16h288c8.8 0 16-7.2 16-16v-32zM640 336c0-8.8-7.2-16-16-16h-288c-8.8 0-16 7.2-16 16v32c0 8.8 7.2 16 16 16h288c8.8 0 16-7.2 16-16v-32zM640 528c0-8.8-7.2-16-16-16h-288c-8.8 0-16 7.2-16 16v32c0 8.8 7.2 16 16 16h288c8.8 0 16-7.2 16-16v-32z" />
<glyph unicode="&#xe9bd;" glyph-name="clock" d="M512 944c-274 0-496-222-496-496s222-496 496-496 496 222 496 496-222 496-496 496zM626.2 243.8l-176.4 128.2c-6.2 4.6-9.8 11.8-9.8 19.4v336.6c0 13.2 10.8 24 24 24h96c13.2 0 24-10.8 24-24v-275.4l127-92.4c10.8-7.8 13-22.8 5.2-33.6l-56.4-77.6c-7.8-10.6-22.8-13-33.6-5.2z" />
<glyph unicode="&#xe9be;" glyph-name="clone" d="M928 960c53.020 0 96-42.98 96-96v-576c0-53.020-42.98-96-96-96h-576c-53.020 0-96 42.98-96 96v576c0 53.020 42.98 96 96 96h576zM352 128c-88.224 0-160 71.776-160 160v416h-96c-53.020 0-96-42.98-96-96v-576c0-53.020 42.98-96 96-96h576c53.020 0 96 42.98 96 96v96h-416z" />
<glyph unicode="&#xe9c0;" glyph-name="cloud" horiz-adv-x="1280" d="M1075.2 506.8c8.2 21.4 12.8 44.8 12.8 69.2 0 106-86 192-192 192-39.4 0-76.2-12-106.6-32.4-55.4 96-158.8 160.4-277.4 160.4-176.8 0-320-143.2-320-320 0-5.4 0.2-10.8 0.4-16.2-112-39.4-192.4-146.2-192.4-271.8 0-159 129-288 288-288h736c141.4 0 256 114.6 256 256 0 123.8-88 227.2-204.8 250.8z" />
<glyph unicode="&#xe9c1;" glyph-name="cloud-download-alt" horiz-adv-x="1280" d="M1075.2 506.8c8.2 21.4 12.8 44.8 12.8 69.2 0 106-86 192-192 192-39.4 0-76.2-12-106.6-32.4-55.4 96-158.8 160.4-277.4 160.4-176.8 0-320-143.2-320-320 0-5.4 0.2-10.8 0.4-16.2-112-39.4-192.4-146.2-192.4-271.8 0-159 129-288 288-288h736c141.4 0 256 114.6 256 256 0 123.8-88 227.2-204.8 250.8zM809.4 329.4l-210.8-210.8c-12.4-12.4-32.8-12.4-45.2 0l-210.8 210.8c-20.2 20.2-5.8 54.6 22.6 54.6h130.8v224c0 17.6 14.4 32 32 32h96c17.6 0 32-14.4 32-32v-224h130.8c28.4 0 42.8-34.4 22.6-54.6z" />
<glyph unicode="&#xe9c9;" glyph-name="cloud-upload-alt" horiz-adv-x="1280" d="M1075.2 506.8c8.2 21.4 12.8 44.8 12.8 69.2 0 106-86 192-192 192-39.4 0-76.2-12-106.6-32.4-55.4 96-158.8 160.4-277.4 160.4-176.8 0-320-143.2-320-320 0-5.4 0.2-10.8 0.4-16.2-112-39.4-192.4-146.2-192.4-271.8 0-159 129-288 288-288h736c141.4 0 256 114.6 256 256 0 123.8-88 227.2-204.8 250.8zM786.8 384h-130.8v-224c0-17.6-14.4-32-32-32h-96c-17.6 0-32 14.4-32 32v224h-130.8c-28.6 0-42.8 34.4-22.6 54.6l210.8 210.8c12.4 12.4 32.8 12.4 45.2 0l210.8-210.8c20.2-20.2 5.8-54.6-22.6-54.6z" />
<glyph unicode="&#xe9cb;" glyph-name="code" horiz-adv-x="1280" d="M557.8-63l-122 35.4c-12.8 3.6-20 17-16.4 29.8l273 940.4c3.6 12.8 17 20 29.8 16.4l122-35.4c12.8-3.6 20-17 16.4-29.8l-273-940.4c-3.8-12.8-17-20.2-29.8-16.4zM329.8 161.4l87 92.8c9.2 9.8 8.6 25.4-1.6 34.4l-181.2 159.4 181.2 159.4c10.2 9 11 24.6 1.6 34.4l-87 92.8c-9 9.6-24.2 10.2-34 1l-288.2-270c-10.2-9.4-10.2-25.6 0-35l288.2-270.2c9.8-9.2 25-8.8 34 1zM984.2 160.2l288.2 270.2c10.2 9.4 10.2 25.6 0 35l-288.2 270.4c-9.6 9-24.8 8.6-34-1l-87-92.8c-9.2-9.8-8.6-25.4 1.6-34.4l181.2-159.6-181.2-159.4c-10.2-9-11-24.6-1.6-34.4l87-92.8c9-9.8 24.2-10.2 34-1.2z" />
<glyph unicode="&#xe9ce;" glyph-name="cog" d="M974.8 328.6l-85.2 49.2c8.6 46.4 8.6 94 0 140.4l85.2 49.2c9.8 5.6 14.2 17.2 11 28-22.2 71.2-60 135.6-109.4 189.2-7.6 8.2-20 10.2-29.6 4.6l-85.2-49.2c-35.8 30.8-77 54.6-121.6 70.2v98.2c0 11.2-7.8 21-18.8 23.4-73.4 16.4-148.6 15.6-218.4 0-11-2.4-18.8-12.2-18.8-23.4v-98.4c-44.4-15.8-85.6-39.6-121.6-70.2l-85 49.2c-9.8 5.6-22 3.8-29.6-4.6-49.4-53.4-87.2-117.8-109.4-189.2-3.4-10.8 1.2-22.4 11-28l85.2-49.2c-8.6-46.4-8.6-94 0-140.4l-85.2-49.2c-9.8-5.6-14.2-17.2-11-28 22.2-71.2 60-135.6 109.4-189.2 7.6-8.2 20-10.2 29.6-4.6l85.2 49.2c35.8-30.8 77-54.6 121.6-70.2v-98.4c0-11.2 7.8-21 18.8-23.4 73.4-16.4 148.6-15.6 218.4 0 11 2.4 18.8 12.2 18.8 23.4v98.4c44.4 15.8 85.6 39.6 121.6 70.2l85.2-49.2c9.8-5.6 22-3.8 29.6 4.6 49.4 53.4 87.2 117.8 109.4 189.2 3 11-1.4 22.6-11.2 28.2zM512 288c-88.2 0-160 71.8-160 160s71.8 160 160 160 160-71.8 160-160-71.8-160-160-160z" />
<glyph unicode="&#xe9d0;" glyph-name="coins" d="M0 149.4v-85.4c0-70.6 172-128 384-128s384 57.4 384 128v85.4c-82.6-58.2-233.6-85.4-384-85.4s-301.4 27.2-384 85.4zM640 704c212 0 384 57.4 384 128s-172 128-384 128-384-57.4-384-128 172-128 384-128zM0 359.2v-103.2c0-70.6 172-128 384-128s384 57.4 384 128v103.2c-82.6-68-233.8-103.2-384-103.2s-301.4 35.2-384 103.2zM832 337.2c114.6 22.2 192 63.4 192 110.8v85.4c-46.4-32.8-114.6-55.2-192-69v-127.2zM384 640c-212 0-384-71.6-384-160s172-160 384-160 384 71.6 384 160-172 160-384 160zM822.6 527.4c120 21.6 201.4 64 201.4 112.6v85.4c-71-50.2-193-77.2-321.4-83.6 59-28.6 102.4-67 120-114.4z" />
<glyph unicode="&#xe9d2;" glyph-name="comment" d="M512 896c-282.8 0-512-186.2-512-416 0-99.2 42.8-190 114-261.4-25-100.8-108.6-190.6-109.6-191.6-4.4-4.6-5.6-11.4-3-17.4s8.2-9.6 14.6-9.6c132.6 0 232 63.6 281.2 102.8 65.4-24.6 138-38.8 214.8-38.8 282.8 0 512 186.2 512 416s-229.2 416-512 416z" />
<glyph unicode="&#xe9d3;" glyph-name="comment-alt" d="M896 960h-768c-70.6 0-128-57.4-128-128v-576c0-70.6 57.4-128 128-128h192v-168c0-19.6 22.4-31 38.2-19.4l249.8 187.4h288c70.6 0 128 57.4 128 128v576c0 70.6-57.4 128-128 128z" />
<glyph unicode="&#xe9d5;" glyph-name="comment-dots" d="M512 896c-282.8 0-512-186.2-512-416 0-99.2 42.8-190 114-261.4-25-100.8-108.6-190.6-109.6-191.6-4.4-4.6-5.6-11.4-3-17.4s8.2-9.6 14.6-9.6c132.6 0 232 63.6 281.2 102.8 65.4-24.6 138-38.8 214.8-38.8 282.8 0 512 186.2 512 416s-229.2 416-512 416zM256 416c-35.4 0-64 28.6-64 64s28.6 64 64 64 64-28.6 64-64-28.6-64-64-64zM512 416c-35.4 0-64 28.6-64 64s28.6 64 64 64 64-28.6 64-64-28.6-64-64-64zM768 416c-35.4 0-64 28.6-64 64s28.6 64 64 64 64-28.6 64-64-28.6-64-64-64z" />
<glyph unicode="&#xe9d7;" glyph-name="comments" horiz-adv-x="1152" d="M832 576c0 176.8-186.2 320-416 320s-416-143.2-416-320c0-68.6 28.2-131.8 76-184-26.8-60.4-71-108.4-71.6-109-4.4-4.6-5.6-11.4-3-17.4s8.2-9.6 14.6-9.6c73.2 0 133.8 24.6 177.4 50 64.4-31.4 140.6-50 222.6-50 229.8 0 416 143.2 416 320zM1076 136c47.8 52 76 115.4 76 184 0 133.8-107 248.4-258.6 296.2 1.8-13.2 2.6-26.6 2.6-40.2 0-211.8-215.4-384-480-384-21.6 0-42.6 1.6-63.4 3.8 63-115 211-195.8 383.4-195.8 82 0 158.2 18.4 222.6 50 43.6-25.4 104.2-50 177.4-50 6.4 0 12.2 3.8 14.6 9.6 2.6 5.8 1.4 12.6-3 17.4-0.6 0.6-44.8 48.4-71.6 109z" />
<glyph unicode="&#xe9db;" glyph-name="compass" horiz-adv-x="992" d="M450.76 493.26c-25-25-25-65.52 0-90.5 24.98-25 65.52-25 90.5 0 25 25 25 65.52 0 90.5s-65.52 24.98-90.5 0zM496 944c-273.94 0-496-222.060-496-496s222.060-496 496-496 496 222.060 496 496-222.060 496-496 496zM748.28 647.9l-131.94-288.7c-6.512-14.016-17.524-25.028-31.147-31.376l-0.393-0.164-288.68-131.94c-33.3-15.22-67.62 19.1-52.4 52.4l131.96 288.7c6.512 14.016 17.524 25.028 31.147 31.376l0.393 0.164 288.68 131.94c33.3 15.2 67.6-19.1 52.38-52.4z" />
<glyph unicode="&#xe9de;" glyph-name="concierge-bell" d="M576 698.92v37.080h32c17.68 0 32 14.32 32 32v32c0 17.68-14.32 32-32 32h-192c-17.68 0-32-14.32-32-32v-32c0-17.68 14.32-32 32-32h32v-37.080c-217.020-31.14-384-217.28-384-442.92h896c0 225.64-166.98 411.78-384 442.92zM992 192h-960c-17.68 0-32-14.32-32-32v-64c0-17.68 14.32-32 32-32h960c17.68 0 32 14.32 32 32v64c0 17.68-14.32 32-32 32z" />
<glyph unicode="&#xe9e1;" glyph-name="copy" horiz-adv-x="896" d="M640 64v-80c0-26.51-21.49-48-48-48h-544c-26.51 0-48 21.49-48 48v736c0 26.51 21.49 48 48 48h144v-592c0-61.758 50.242-112 112-112h336zM640 752v208h-336c-26.51 0-48-21.49-48-48v-736c0-26.51 21.49-48 48-48h544c26.51 0 48 21.49 48 48v528h-208c-26.4 0-48 21.6-48 48zM881.942 814.058l-131.884 131.884c-8.686 8.686-20.686 14.058-33.94 14.058h-12.118v-192h192v12.118c0 13.254-5.372 25.254-14.058 33.94v0z" />
<glyph unicode="&#xe9e2;" glyph-name="copyright" d="M512 944c-273.934 0-496-222.066-496-496s222.066-496 496-496 496 222.066 496 496-222.066 496-496 496zM746.268 250.494c-3.184-3.734-79.552-91.462-219.702-91.462-169.384 0-288.968 126.52-288.968 291.134 0 162.606 124.008 286.802 287.524 286.802 133.914 0 203.93-74.63 206.844-77.808 3.915-4.257 6.315-9.961 6.315-16.225 0-4.839-1.432-9.344-3.896-13.113l0.056 0.092-44.76-69.31c-8.098-12.534-25.548-14.702-36.468-4.59-0.466 0.428-53.058 47.76-123.76 47.76-92.232 0-147.832-67.15-147.832-152.164 0-79.204 51.028-159.384 148.554-159.384 77.394 0 130.56 56.676 131.088 57.25 10.264 11.13 28.118 10.066 37.016-2.106l49.094-67.144c2.89-3.916 4.626-8.838 4.626-14.166 0-5.955-2.169-11.404-5.759-15.599l0.027 0.033z" />
<glyph unicode="&#xe9e4;" glyph-name="credit-card" horiz-adv-x="1152" d="M0 96c0-53 43-96 96-96h960c53 0 96 43 96 96v352h-1152v-352zM384 232c0 13.2 10.8 24 24 24h272c13.2 0 24-10.8 24-24v-80c0-13.2-10.8-24-24-24h-272c-13.2 0-24 10.8-24 24v80zM128 232c0 13.2 10.8 24 24 24h144c13.2 0 24-10.8 24-24v-80c0-13.2-10.8-24-24-24h-144c-13.2 0-24 10.8-24 24v80zM1152 800v-96h-1152v96c0 53 43 96 96 96h960c53 0 96-43 96-96z" />
<glyph unicode="&#xe9ef;" glyph-name="database" horiz-adv-x="896" d="M896 813.714v-91.428c0-80.572-200.666-146.286-448-146.286s-448 65.714-448 146.286v91.428c0 80.572 200.666 146.286 448 146.286s448-65.714 448-146.286zM896 608v-205.714c0-80.572-200.666-146.286-448-146.286s-448 65.714-448 146.286v205.714c96.25-66.286 272.416-97.144 448-97.144s351.748 30.858 448 97.144zM896 288v-205.714c0-80.572-200.666-146.286-448-146.286s-448 65.714-448 146.286v205.714c96.25-66.286 272.416-97.144 448-97.144s351.748 30.858 448 97.144z" />
<glyph unicode="&#xe9f2;" glyph-name="desktop" horiz-adv-x="1152" d="M1056 960h-960c-53 0-96-43-96-96v-640c0-53 43-96 96-96h384l-32-96h-144c-26.6 0-48-21.4-48-48s21.4-48 48-48h544c26.6 0 48 21.4 48 48s-21.4 48-48 48h-144l-32 96h384c53 0 96 43 96 96v640c0 53-43 96-96 96zM1024 256h-896v576h896v-576z" />
<glyph unicode="&#xe9f6;" glyph-name="dice-d6" horiz-adv-x="896" d="M844.38 740.1l-331.96 201.76c-39.82 24.2-89.040 24.2-128.86 0l-331.94-201.76c-10.64-6.46-10.58-22.54 0.12-28.92l396.26-236.28 396.28 236.28c10.7 6.38 10.76 22.44 0.1 28.92zM872.060 650.84l-392.060-233.76v-447.64c0-25.76 26.78-41.82 48.1-28.86l304.32 184.96c39.36 23.92 63.58 67.88 63.58 115.4v395.4c0 12.82-13.28 20.86-23.94 14.5zM0 636.34v-395.4c0-47.54 24.22-91.48 63.58-115.4l304.32-184.94c21.34-12.96 48.1 3.080 48.1 28.86v447.62l-392.060 233.76c-10.66 6.36-23.94-1.68-23.94-14.5z" />
<glyph unicode="&#xea04;" glyph-name="dollar-sign" horiz-adv-x="576" d="M418.4 493.2l-216 63.2c-25 7.2-42.4 30.6-42.4 56.6 0 32.6 26.4 59 59 59h132.6c24.4 0 48.4-7.4 68.4-21 12.2-8.2 28.6-6.2 39 4l69.6 68c14.2 13.8 12.2 36.8-3.6 49-49 38.4-110.2 59.8-173 60v96c0 17.6-14.4 32-32 32h-64c-17.6 0-32-14.4-32-32v-96h-5c-127.4 0-229.8-109.4-218-239.2 8.4-92.2 78.8-167.2 167.6-193.2l205-60c25-7.4 42.4-30.6 42.4-56.6 0-32.6-26.4-59-59-59h-132.6c-24.4 0-48.4 7.4-68.4 21-12.2 8.2-28.6 6.2-39-4l-69.6-68c-14.2-13.8-12.2-36.8 3.6-49 49-38.4 110.2-59.8 173-60v-96c0-17.6 14.4-32 32-32h64c17.6 0 32 14.4 32 32v96.4c93.2 1.8 180.6 57.2 211.4 145.4 43 123.2-29.2 249.6-145 283.4z" />
<glyph unicode="&#xea05;" glyph-name="dolly" horiz-adv-x="1152" d="M588.4 404.6c36-10 69.4-26.8 99-49.4l323 107.6c16.8 5.6 25.8 23.8 20.2 40.4l-120.8 362.4c-5.6 16.8-23.8 25.8-40.4 20.2l-122.2-40.8 66.2-198.8-121.4-40.2-66.2 198.8-123.2-41c-16.8-5.6-25.8-23.8-20.2-40.4l106-318.8zM1150.4 307.2l-20.4 60.8c-5.6 16.8-23.8 25.8-40.4 20.2l-427-142.4c-34.4 44-87.2 72.8-147 74l-198.8 596.4c-8.8 26.2-33.2 43.8-60.8 43.8h-224c-17.6 0-32-14.4-32-32v-64c0-17.6 14.4-32 32-32h177.8l184.4-553.4c-52.2-40.8-83.4-107.2-72-181 12.2-78.8 75.8-144.6 154.6-158.4 120.4-21.4 224.6 69.6 226.8 185.2l426.6 142.4c16.6 5.6 25.8 23.6 20.2 40.4zM512 32c-53 0-96 43-96 96s43 96 96 96 96-43 96-96-43-96-96-96z" />
<glyph unicode="&#xea06;" glyph-name="dolly-flatbed" horiz-adv-x="1280" d="M416 320h768c17.6 0 32 14.4 32 32v512c0 17.6-14.4 32-32 32h-288v-256l-96 64-96-64v256h-288c-17.6 0-32-14.4-32-32v-512c0-17.6 14.4-32 32-32zM1248 192h-992v736c0 17.6-14.4 32-32 32h-192c-17.6 0-32-14.4-32-32v-64c0-17.6 14.4-32 32-32h96v-736c0-17.6 14.4-32 32-32h165.8c-3.6-10-5.8-20.8-5.8-32 0-53 43-96 96-96s96 43 96 96c0 11.2-2.4 22-5.8 32h395.8c-3.6-10-5.8-20.8-5.8-32 0-53 43-96 96-96s96 43 96 96c0 11.2-2.4 22-5.8 32h165.6c17.6 0 32 14.4 32 32v64c0 17.6-14.4 32-32 32z" />
<glyph unicode="&#xea07;" glyph-name="donate" d="M512 128c229.8 0 416 186.2 416 416s-186.2 416-416 416-416-186.2-416-416 186.2-416 416-416zM467.6 765.2v33.6c0 18.4 14.8 33.2 33.2 33.2h22.2c18.4 0 33.2-14.8 33.2-33.2v-34c31-1.6 61-12.2 86-30.8 11.2-8.2 12.4-24.6 2.4-34.2l-32.6-31c-7.6-7.4-19-7.6-28-2-10.8 6.8-22.8 10.2-35.6 10.2h-77.8c-18 0-32.6-16.4-32.6-36.6 0-16.4 10-31 24.2-35.2l124.6-37.4c51.4-15.4 87.4-64.8 87.4-120.2 0-68-52.8-123-118.2-124.8v-33.6c0-18.4-14.8-33.2-33.2-33.2h-22.2c-18.4 0-33.2 14.8-33.2 33.2v34c-31 1.6-61 12.2-86 30.8-11.2 8.2-12.4 24.6-2.4 34.2l32.6 31c7.6 7.4 19 7.6 28 2 10.8-6.8 22.8-10.2 35.6-10.2h77.8c18 0 32.6 16.4 32.6 36.6 0 16.4-10 31-24.2 35.2l-124.6 37.4c-51.4 15.4-87.4 64.8-87.4 120.2 0.2 68 52.8 123 118.2 124.8zM960 256h-65c-39.2-52-89.2-95.4-146-128h127.6c10.6 0 19.2-7.2 19.2-16v-32c0-8.8-8.6-16-19.2-16h-729.4c-10.6 0-19.2 7.2-19.2 16v32c0 8.8 8.6 16 19.2 16h127.6c-56.8 32.6-106.6 76-146 128h-64.8c-35.4 0-64-28.6-64-64v-192c0-35.4 28.6-64 64-64h896c35.4 0 64 28.6 64 64v192c0 35.4-28.6 64-64 64z" />
<glyph unicode="&#xea0a;" glyph-name="dot-circle" d="M512 944c-273.934 0-496-222.066-496-496s222.066-496 496-496 496 222.066 496 496-222.066 496-496 496zM672 448c0-88.224-71.776-160-160-160s-160 71.776-160 160 71.776 160 160 160 160-71.776 160-160z" />
<glyph unicode="&#xea0b;" glyph-name="dove" d="M576 625.6v56.2c-56.4 72.6-94.2 158.6-108.2 250.4-4.2 27-38 37.6-55.6 16.6-42.2-49.8-75.4-108.2-97.8-173 68.4-76.6 160-129.2 261.6-150.2zM800 832c-88.4 0-160-71.8-160-160.2v-118.8c-208.8 12.4-386 141-466 323.4-11 25-46.4 26.4-58 1.8-33.2-70.2-52-148.6-52-231.4 0-141.6 68.2-273.8 170.2-371.8 26.4-25.4 52.2-46.4 77.8-65.6l-287.8-72c-21.4-5.4-31-30.2-19-48.8 34.8-53.8 120.8-145 306.4-152.6 16-0.6 32 5.2 44.2 15.8l130.4 112.2h153.8c176.8 0 320 143 320 319.8v320.2l64 128h-224zM800 639.8c-17.6 0-32 14.4-32 32s14.4 32 32 32 32-14.4 32-32-14.4-32-32-32z" />
<glyph unicode="&#xea0c;" glyph-name="download" d="M432 960h160c26.6 0 48-21.4 48-48v-336h175.4c35.6 0 53.4-43 28.2-68.2l-304.2-304.4c-15-15-39.6-15-54.6 0l-304.6 304.4c-25.2 25.2-7.4 68.2 28.2 68.2h175.6v336c0 26.6 21.4 48 48 48zM1024 208v-224c0-26.6-21.4-48-48-48h-928c-26.6 0-48 21.4-48 48v224c0 26.6 21.4 48 48 48h293.4l98-98c40.2-40.2 105-40.2 145.2 0l98 98h293.4c26.6 0 48-21.4 48-48zM776 32c0 22-18 40-40 40s-40-18-40-40 18-40 40-40 40 18 40 40zM904 32c0 22-18 40-40 40s-40-18-40-40 18-40 40-40 40 18 40 40z" />
<glyph unicode="&#xea0d;" glyph-name="drafting-compass" d="M914.020 271.16c-50.1-40.66-105.26-74.36-165.080-98.1l108.76-188.38 107.9-46.080c19.62-8.38 41.78 4.42 44.34 25.6l14.040 116.5-109.96 190.46zM999 460.28c9.72 15.34 3.78 35.98-12.1 44.78l-56.14 31.14c-14.96 8.3-33.22 2.92-42.52-11.44-82.22-127.060-223.74-204.76-376.24-204.76-47.86 0-94.46 8.5-138.82 23.060l134.72 233.36c1.4-0.040 2.68-0.42 4.080-0.42s2.7 0.38 4.080 0.42l102.18-177c62.46 17.92 119.12 51.5 165.22 97.84l-103.58 179.42c14.9 27.26 24.12 58.060 24.12 91.32 0 106.040-85.96 192-192 192s-192-85.96-192-192c0-33.26 9.22-64.060 24.1-91.32l-136.6-236.62c-25.1 23.22-47.92 49.18-67.36 78-9.58 14.2-27.94 19.24-42.76 10.66l-55.5-32.14c-15.7-9.080-21.26-29.8-11.28-44.94 31.14-47.28 69.38-88.42 111.96-124.040l-142.56-246.92 14.040-116.5c2.56-21.18 24.72-33.98 44.34-25.6l107.9 46.080 141.6 245.26c64.38-24.48 133.36-37.92 204.12-37.92 198.1 0 381.76 102.020 487 268.28zM512 832c35.34 0 64-28.66 64-64s-28.66-64-64-64-64 28.66-64 64 28.66 64 64 64z" />
<glyph unicode="&#xea17;" glyph-name="edit" horiz-adv-x="1152" d="M805.2 793.6l180.4-180.4c7.6-7.6 7.6-20 0-27.6l-436.8-436.8-185.6-20.6c-24.8-2.8-45.8 18.2-43 43l20.6 185.6 436.8 436.8c7.6 7.6 20 7.6 27.6 0zM1129.2 839.4l-97.6 97.6c-30.4 30.4-79.8 30.4-110.4 0l-70.8-70.8c-7.6-7.6-7.6-20 0-27.6l180.4-180.4c7.6-7.6 20-7.6 27.6 0l70.8 70.8c30.4 30.6 30.4 80 0 110.4zM768 267.6v-203.6h-640v640h459.6c6.4 0 12.4 2.6 17 7l80 80c15.2 15.2 4.4 41-17 41h-571.6c-53 0-96-43-96-96v-704c0-53 43-96 96-96h704c53 0 96 43 96 96v315.6c0 21.4-25.8 32-41 17l-80-80c-4.4-4.6-7-10.6-7-17z" />
<glyph unicode="&#xea1a;" glyph-name="ellipsis-h" d="M656 448c0-79.6-64.4-144-144-144s-144 64.4-144 144 64.4 144 144 144 144-64.4 144-144zM864 592c-79.6 0-144-64.4-144-144s64.4-144 144-144 144 64.4 144 144-64.4 144-144 144zM160 592c-79.6 0-144-64.4-144-144s64.4-144 144-144 144 64.4 144 144-64.4 144-144 144z" />
<glyph unicode="&#xea1b;" glyph-name="ellipsis-v" horiz-adv-x="384" d="M192 592c79.6 0 144-64.4 144-144s-64.4-144-144-144-144 64.4-144 144 64.4 144 144 144zM48 800c0-79.6 64.4-144 144-144s144 64.4 144 144-64.4 144-144 144-144-64.4-144-144zM48 96c0-79.6 64.4-144 144-144s144 64.4 144 144-64.4 144-144 144-144-64.4-144-144z" />
<glyph unicode="&#xea1c;" glyph-name="envelope" d="M1004.6 578.4c7.8 6.2 19.4 0.4 19.4-9.4v-409c0-53-43-96-96-96h-832c-53 0-96 43-96 96v408.8c0 10 11.4 15.6 19.4 9.4 44.8-34.8 104.2-79 308.2-227.2 42.2-30.8 113.4-95.6 184.4-95.2 71.4-0.6 144 65.6 184.6 95.2 204 148.2 263.2 192.6 308 227.4zM512 320c46.4-0.8 113.2 58.4 146.8 82.8 265.4 192.6 285.6 209.4 346.8 257.4 11.6 9 18.4 23 18.4 37.8v38c0 53-43 96-96 96h-832c-53 0-96-43-96-96v-38c0-14.8 6.8-28.6 18.4-37.8 61.2-47.8 81.4-64.8 346.8-257.4 33.6-24.4 100.4-83.6 146.8-82.8z" />
<glyph unicode="&#xea1d;" glyph-name="envelope-open" d="M1024 32c0-53.020-42.98-96-96-96h-832c-53.020 0-96 42.98-96 96v526.552c0 30.578 14.297 57.817 36.571 75.397l0.203 0.155c49.826 39.058 91.002 70.73 328.4 243.022 33.65 24.534 100.42 83.568 146.826 82.868 46.396 0.708 113.192-58.344 146.826-82.866 237.374-172.274 278.606-203.99 328.4-243.024 22.477-17.735 36.774-44.974 36.774-75.552v0-526.552zM892.668 425.21c-5.126 7.456-15.4 9.19-22.678 3.814-45.69-33.746-110.924-81.41-211.164-154.158-33.65-24.532-100.42-83.562-146.826-82.86-46.422-0.688-113.118 58.286-146.826 82.86-100.228 72.74-165.468 120.408-211.164 154.158-7.278 5.376-17.552 3.642-22.678-3.814l-18.144-26.392c-1.763-2.534-2.817-5.677-2.817-9.065 0-5.257 2.536-9.923 6.452-12.838l0.043-0.030c45.774-33.798 110.908-81.38 210.606-153.736 40.548-29.562 113.048-95.626 184.528-95.146 71.448-0.484 143.922 65.542 184.526 95.146 99.7 72.358 164.836 119.94 210.606 153.736 3.958 2.946 6.495 7.611 6.495 12.869 0 3.389-1.054 6.531-2.851 9.118l0.035-0.053-18.142 26.392z" />
<glyph unicode="&#xea1e;" glyph-name="envelope-open-text" d="M352 528h320c17.68 0 32 14.32 32 32v32c0 17.68-14.32 32-32 32h-320c-17.68 0-32-14.32-32-32v-32c0-17.68 14.32-32 32-32zM320 368c0-17.68 14.32-32 32-32h320c17.68 0 32 14.32 32 32v32c0 17.68-14.32 32-32 32h-320c-17.68 0-32-14.32-32-32v-32zM512 125.74c-32.84 0-65.68 10.12-93.72 30.38l-418.28 302.16v-426.28c0-53.020 42.98-96 96-96h832c53.020 0 96 42.98 96 96v426.28l-418.28-302.16c-28.040-20.24-60.88-30.38-93.72-30.38zM987.22 634.1c-17.7 13.88-34.48 26.94-59.22 45.62v88.28c0 53.020-42.98 96-96 96h-155.1c-6.080 4.4-11.74 8.52-18.080 13.12-33.62 24.54-100.42 83.58-146.82 82.88-46.4 0.7-113.18-58.34-146.82-82.88-6.34-4.6-12-8.72-18.080-13.12h-155.1c-53.020 0-96-42.98-96-96v-88.28c-24.74-18.66-41.52-31.74-59.22-45.62-22.477-17.73-36.776-44.965-36.78-75.539v-21.301l192-138.7v369.44h640v-369.44l192 138.7v21.3c0 29.48-13.56 57.34-36.78 75.54z" />
<glyph unicode="&#xea1f;" glyph-name="envelope-square" horiz-adv-x="896" d="M800 896h-704c-53.020 0-96-42.98-96-96v-704c0-53.020 42.98-96 96-96h704c53.020 0 96 42.98 96 96v704c0 53.020-42.98 96-96 96zM356.234 435.792c-181.376 131.634-179.528 131.966-228.234 169.874v50.334c0 26.51 21.49 48 48 48h544c26.51 0 48-21.49 48-48v-50.334c-48.742-37.938-46.868-38.248-228.234-169.876-21-15.31-62.784-52.24-91.766-51.788-29.006-0.436-70.734 36.454-91.766 51.79zM768 524.45v-284.45c0-26.51-21.49-48-48-48h-544c-26.51 0-48 21.49-48 48v284.45c27.916-21.588 66.658-50.472 190.606-140.428 28.324-20.682 75.95-64.29 129.388-64.020 53.774-0.268 102.074 44.082 129.44 64.050 123.916 89.93 162.65 118.812 190.566 140.398z" />
<glyph unicode="&#xea25;" glyph-name="exclamation" horiz-adv-x="384" d="M352 96c0-88.224-71.776-160-160-160s-160 71.776-160 160 71.776 160 160 160 160-71.776 160-160zM50.52 909.602l27.2-544c1.278-25.546 22.362-45.602 47.94-45.602h132.68c25.578 0 46.662 20.056 47.94 45.602l27.2 544c1.37 27.418-20.488 50.398-47.94 50.398h-187.080c-27.452 0-49.31-22.98-47.94-50.398z" />
<glyph unicode="&#xea26;" glyph-name="exclamation-circle" d="M1008 448c0-273.994-222.086-496-496-496s-496 222.006-496 496c0 273.834 222.086 496 496 496s496-222.166 496-496zM512 348c-50.81 0-92-41.19-92-92s41.19-92 92-92 92 41.19 92 92-41.19 92-92 92zM424.654 678.692l14.836-272c0.694-12.728 11.218-22.692 23.964-22.692h97.092c12.746 0 23.27 9.964 23.964 22.692l14.836 272c0.75 13.748-10.196 25.308-23.964 25.308h-126.766c-13.768 0-24.712-11.56-23.962-25.308z" />
<glyph unicode="&#xea27;" glyph-name="exclamation-triangle" horiz-adv-x="1152" d="M1139.034 79.974c36.916-63.988-9.422-143.974-83.154-143.974h-959.772c-73.874 0-119.998 80.11-83.154 143.974l479.892 832.056c36.934 64.018 129.44 63.902 166.308 0l479.88-832.056zM576 252c-50.81 0-92-41.19-92-92s41.19-92 92-92 92 41.19 92 92-41.19 92-92 92zM488.654 582.692l14.836-272c0.694-12.728 11.218-22.692 23.964-22.692h97.092c12.746 0 23.27 9.964 23.964 22.692l14.836 272c0.75 13.748-10.196 25.308-23.964 25.308h-126.766c-13.768 0-24.712-11.56-23.962-25.308z" />
<glyph unicode="&#xea28;" glyph-name="expand" horiz-adv-x="896" d="M0 600v248c0 26.6 21.4 48 48 48h248c13.2 0 24-10.8 24-24v-80c0-13.2-10.8-24-24-24h-168v-168c0-13.2-10.8-24-24-24h-80c-13.2 0-24 10.8-24 24zM576 872v-80c0-13.2 10.8-24 24-24h168v-168c0-13.2 10.8-24 24-24h80c13.2 0 24 10.8 24 24v248c0 26.6-21.4 48-48 48h-248c-13.2 0-24-10.8-24-24zM872 320h-80c-13.2 0-24-10.8-24-24v-168h-168c-13.2 0-24-10.8-24-24v-80c0-13.2 10.8-24 24-24h248c26.6 0 48 21.4 48 48v248c0 13.2-10.8 24-24 24zM320 24v80c0 13.2-10.8 24-24 24h-168v168c0 13.2-10.8 24-24 24h-80c-13.2 0-24-10.8-24-24v-248c0-26.6 21.4-48 48-48h248c13.2 0 24 10.8 24 24z" />
<glyph unicode="&#xea29;" glyph-name="expand-arrows-alt" horiz-adv-x="896" d="M896 272v-224c0-0.036 0-0.078 0-0.12 0-26.443-21.437-47.88-47.88-47.88-0.042 0-0.084 0-0.127 0h-223.993c-42.78 0-64.18 51.8-34 82l72.4 72.4-214.4 214.4-214.46-214.6 72.46-72.2c30.18-30.2 8.78-82-34-82h-224c-0.036 0-0.078 0-0.12 0-26.443 0-47.88 21.437-47.88 47.88 0 0.042 0 0.084 0 0.127v-0.007 224c0 42.8 51.78 64.2 82 34l72.38-72.4 214.54 214.4-214.56 214.6-72.36-72.6c-30.2-30.2-82-8.8-82 34v224c0 0.036 0 0.078 0 0.12 0 26.443 21.437 47.88 47.88 47.88 0.042 0 0.084 0 0.127 0h223.993c42.78 0 64.18-51.8 34-82l-72.4-72.4 214.4-214.4 214.46 214.6-72.46 72.2c-30.18 30.2-8.78 82 34 82h224c0.036 0 0.078 0 0.12 0 26.443 0 47.88-21.437 47.88-47.88 0-0.042 0-0.084 0-0.127v0.007-224c0-42.8-51.78-64.2-82-34l-72.38 72.4-214.54-214.4 214.56-214.6 72.36 72.4c30.2 30.4 82 9 82-33.8z" />
<glyph unicode="&#xea2a;" glyph-name="external-link-alt" d="M864 320h-64c-17.673 0-32-14.327-32-32v0-224h-640v640h288c17.673 0 32 14.327 32 32v0 64c0 17.673-14.327 32-32 32v0h-320c-53.019 0-96-42.981-96-96v0-704c0-53.019 42.981-96 96-96v0h704c53.019 0 96 42.981 96 96v0 256c0 17.673-14.327 32-32 32v0zM976 960h-256c-42.74 0-64.1-51.82-34-82l71.46-71.46-487.46-487.28c-8.721-8.692-14.118-20.716-14.118-34s5.396-25.308 14.116-33.999l0.001-0.001 45.34-45.26c8.692-8.721 20.716-14.118 34-14.118s25.308 5.396 33.999 14.116l487.221 487.361 71.44-71.36c30-30 82-9 82 34v256c0 26.51-21.49 48-48 48v0z" />
<glyph unicode="&#xea2b;" glyph-name="external-link-square-alt" horiz-adv-x="896" d="M896 800v-704c0-53.020-42.98-96-96-96h-704c-53.020 0-96 42.98-96 96v704c0 53.020 42.98 96 96 96h704c53.020 0 96-42.98 96-96zM720 768h-223.942c-42.626 0-64.16-51.722-33.942-81.942l63.968-63.974-391.054-391.054c-9.372-9.372-9.372-24.568 0-33.942l62.058-62.058c9.374-9.372 24.57-9.372 33.942 0l391.052 391.052 63.976-63.982c30.058-30.054 81.942-8.95 81.942 33.942v223.958c0 26.51-21.49 48-48 48z" />
<glyph unicode="&#xea2c;" glyph-name="eye" horiz-adv-x="1152" d="M1145.040 477.2c-108.46 211.62-323.18 354.8-569.040 354.8s-460.64-143.28-569.040-354.82c-4.387-8.495-6.959-18.542-6.959-29.19s2.572-20.695 7.129-29.553l-0.17 0.363c108.46-211.62 323.18-354.8 569.040-354.8s460.64 143.28 569.040 354.82c4.387 8.495 6.959 18.542 6.959 29.19s-2.572 20.695-7.129 29.553l0.17-0.363zM576 160c-159.058 0-288 128.942-288 288s128.942 288 288 288c159.058 0 288-128.942 288-288v0c0-0.041 0-0.091 0-0.14 0-158.981-128.879-287.86-287.86-287.86-0.049 0-0.098 0-0.147 0h0.007zM576 640c-18.13-0.261-35.516-3.012-51.969-7.926l1.349 0.346c11.631-15.661 18.62-35.374 18.62-56.72 0-52.854-42.846-95.7-95.7-95.7-21.346 0-41.059 6.988-56.977 18.802l0.257-0.182c-4.247-15.047-6.689-32.328-6.689-50.179 0-105.796 85.764-191.56 191.56-191.56s191.56 85.764 191.56 191.56c0 105.796-85.764 191.56-191.56 191.56-0.159 0-0.317 0-0.476-0.001h0.025z" />
<glyph unicode="&#xea2d;" glyph-name="eye-dropper" d="M101.5 293.5c-24-24-37.5-56.56-37.5-90.52v-90.98l-64-112 64-64 112 64h90.98c33.94 0 66.5 13.48 90.5 37.48l253.28 253.24-256 256-253.26-253.22zM967.76 903.76c-74.94 75-196.56 75-271.5 0l-154.18-154.18-26.2 26.2c-18.88 18.88-49.3 18.62-67.88 0l-81.94-81.94c-18.74-18.74-18.74-49.14 0-67.88l323.88-323.88c18.88-18.88 49.3-18.62 67.88 0l81.94 81.92c18.74 18.74 18.74 49.14 0 67.88l-26.2 26.2 154.18 154.18c75.020 74.96 75.020 196.52 0.020 271.5z" />
<glyph unicode="&#xea33;" glyph-name="feather" d="M934.28 870.32c-125.1 124.96-323.34 129.56-504.56-51.46-157.22-157.040-121.96-121.84-171.5-171.32-120.92-120.78-140.78-301.66-127.28-422.34l356.88 356.5c12.52 12.5 32.8 12.5 45.3 0s12.5-32.76 0-45.26l-519.040-518.5c-18.76-18.74-18.76-49.14 0-67.88s49.2-18.74 67.96 0l132.2 132.060c104.6-31.42 343.76-36.34 493.66 109.88h-196.38l295.14 98.28c99.98 99.86 72.76 72.36 92.62 93.72h-195.56l263.080 87.6c90.88 148.92 68.62 297.68-32.52 398.72z" />
<glyph unicode="&#xea34;" glyph-name="feather-alt" d="M1024 960c-103.56-7.12-831.12-76.4-881.98-575.22-6.18-53.32-9.68-106.88-11.98-160.48l357.74 357.38c12.5 12.5 32.8 12.5 45.3 0s12.5-32.76 0-45.26l-519-518.48c-18.76-18.74-18.76-49.14 0-67.88s49.18-18.74 67.96 0l114.26 114.14c84.18 0.28 168.3 5.060 251.92 14.72 106.96 10.88 194.040 52.94 265.16 113.080h-201.9l293.58 97.76c22.5 29.78 42.74 61.42 60.9 94.24h-162.28l213.080 106.42c83.82 203.86 103.62 417.060 107.24 469.58z" />
<glyph unicode="&#xea35;" glyph-name="female" horiz-adv-x="512" d="M256 960c70.692 0 128-57.308 128-128s-57.308-128-128-128c-70.692 0-128 57.308-128 128s57.308 128 128 128zM494.566 251.642l-96 384c-5.392 21.048-24.191 36.358-46.566 36.358h-22.72c-45.422-20.886-99.18-21.788-146.56 0h-22.72c-22.375 0-41.174-15.31-46.494-36.025l-0.072-0.333-96-384c-7.564-30.252 15.332-59.642 46.566-59.642h112v-208c0-26.51 21.49-48 48-48h64c26.51 0 48 21.49 48 48v208h112c31.182 0 54.142 29.342 46.566 59.642z" />
<glyph unicode="&#xea37;" glyph-name="file" horiz-adv-x="768" d="M448 688v272h-400c-26.6 0-48-21.4-48-48v-928c0-26.6 21.4-48 48-48h672c26.6 0 48 21.4 48 48v656h-272c-26.4 0-48 21.6-48 48zM768 716.2v-12.2h-256v256h12.2c12.8 0 25-5 34-14l195.8-196c9-9 14-21.2 14-33.8z" />
<glyph unicode="&#xea38;" glyph-name="file-alt" horiz-adv-x="768" d="M448 688v272h-400c-26.6 0-48-21.4-48-48v-928c0-26.6 21.4-48 48-48h672c26.6 0 48 21.4 48 48v656h-272c-26.4 0-48 21.6-48 48zM576 216c0-13.2-10.8-24-24-24h-336c-13.2 0-24 10.8-24 24v16c0 13.2 10.8 24 24 24h336c13.2 0 24-10.8 24-24v-16zM576 344c0-13.2-10.8-24-24-24h-336c-13.2 0-24 10.8-24 24v16c0 13.2 10.8 24 24 24h336c13.2 0 24-10.8 24-24v-16zM576 488v-16c0-13.2-10.8-24-24-24h-336c-13.2 0-24 10.8-24 24v16c0 13.2 10.8 24 24 24h336c13.2 0 24-10.8 24-24zM768 716.2v-12.2h-256v256h12.2c12.8 0 25-5 34-14l195.8-196c9-9 14-21.2 14-33.8z" />
<glyph unicode="&#xea39;" glyph-name="file-archive" horiz-adv-x="768" d="M754 750l-195.8 196c-9 9-21.2 14-34 14h-12.2v-256h256v12.2c0 12.6-5 24.8-14 33.8zM256.8 288c-35.8 0-64.8-24.2-64.8-54 0-30 29.2-54 65-54s64.8 24.2 64.8 54-29.2 54-65 54zM448 688v272h-127.2v-64h-64v64h-208.8c-26.6 0-48-21.4-48-48v-928c0-26.6 21.4-48 48-48h672c26.6 0 48 21.4 48 48v656h-272c-26.4 0-48 21.6-48 48zM191.8 896h64v-64h-64zM256.4 128c-66.4 0-116 60.8-102.8 125.8l39.2 194.2v64h64v64h-64v64h64v64h-64v64h64v64h64v-64h-64v-64h64v-64h-64v-64h64v-64h-64v-64h44.2c11.4 0 21.4-8.2 23.6-19.4l34.6-175.4c12.8-64.8-36.8-125.2-102.8-125.2z" />
<glyph unicode="&#xea3b;" glyph-name="file-code" horiz-adv-x="768" d="M768 716.118v-12.118h-256v256h12.118c12.73 0 24.94-5.058 33.942-14.058l195.882-195.882c8.685-8.687 14.057-20.687 14.058-33.942v0zM496 640c-26.4 0-48 21.6-48 48v272h-400c-26.51 0-48-21.49-48-48v-928c0-26.51 21.49-48 48-48h672c26.51 0 48 21.49 48 48v656h-272zM246.412 158.99c-1.975-2.103-4.774-3.413-7.879-3.413-2.86 0-5.461 1.112-7.393 2.927l0.006-0.005-129.732 121.624c-2.103 1.975-3.413 4.774-3.413 7.879s1.31 5.904 3.408 7.874l0.006 0.005 129.732 121.624c1.926 1.81 4.527 2.921 7.387 2.921 3.105 0 5.904-1.31 7.874-3.408l0.005-0.006 39.158-41.77c1.809-1.926 2.921-4.527 2.921-7.387 0-3.224-1.413-6.119-3.653-8.097l-0.012-0.010-81.526-71.748 81.526-71.748c2.252-1.989 3.665-4.883 3.665-8.107 0-2.86-1.112-5.46-2.926-7.392l0.005 0.006-39.158-41.768zM349.002 58.032l-54.906 15.94c-4.537 1.349-7.789 5.482-7.789 10.375 0 1.072 0.156 2.108 0.447 3.086l-0.020-0.076 122.88 423.252c1.349 4.537 5.482 7.789 10.375 7.789 1.072 0 2.108-0.156 3.086-0.447l-0.076 0.020 54.904-15.94c4.537-1.348 7.789-5.48 7.789-10.372 0-1.073-0.157-2.11-0.448-3.089l0.020 0.076-122.88-423.252c-1.345-4.537-5.476-7.791-10.368-7.791-1.073 0-2.11 0.157-3.089 0.448l0.076-0.020zM670.586 280.122l-129.732-121.624c-1.926-1.81-4.527-2.921-7.387-2.921-3.105 0-5.904 1.31-7.874 3.408l-0.005 0.006-39.16 41.77c-1.809 1.926-2.921 4.527-2.921 7.387 0 3.224 1.413 6.119 3.653 8.097l0.012 0.010 81.528 71.746-81.526 71.748c-2.252 1.989-3.665 4.883-3.665 8.107 0 2.86 1.112 5.46 2.926 7.392l-0.005-0.006 39.16 41.77c1.975 2.103 4.774 3.413 7.879 3.413 2.86 0 5.461-1.112 7.393-2.927l-0.006 0.005 129.732-121.624c2.103-1.975 3.412-4.774 3.412-7.878s-1.311-5.904-3.409-7.875l-0.006-0.005z" />
<glyph unicode="&#xea3e;" glyph-name="file-download" horiz-adv-x="768" d="M448 688v272h-400c-26.6 0-48-21.4-48-48v-928c0-26.6 21.4-48 48-48h672c26.6 0 48 21.4 48 48v656h-272c-26.4 0-48 21.6-48 48zM600.9 265.28l-192.84-191.4c-13.3-13.22-34.78-13.22-48.080 0l-192.84 191.4c-20.3 20.14-6.060 54.72 22.5 54.72h130.36v160c0 17.68 14.32 32 32 32h64c17.68 0 32-14.32 32-32v-160h130.36c28.56 0 42.8-34.58 22.54-54.72zM754 750l-195.8 196c-9 9-21.2 14-34 14h-12.2v-256h256v12.2c0 12.6-5 24.8-14 33.8z" />
<glyph unicode="&#xea3f;" glyph-name="file-excel" horiz-adv-x="768" d="M448 688v272h-400c-26.6 0-48-21.4-48-48v-928c0-26.6 21.4-48 48-48h672c26.6 0 48 21.4 48 48v656h-272c-26.4 0-48 21.6-48 48zM568.2 475l-120.2-187 120.2-187c10.2-16-1.2-37-20.2-37h-69.8c-8.8 0-17 4.8-21.2 12.6-39.2 72.4-73 137.4-73 137.4-12.8-29.6-20-40-73.2-137.6-4.2-7.8-12.2-12.6-21-12.6h-69.8c-19 0-30.4 21-20.2 37l120.6 187-120.6 187c-10.4 16 1.2 37 20.2 37h69.6c8.8 0 17-4.8 21.2-12.6 52.2-97.6 40-67.2 73.2-137 0 0 12.2 23.4 73.2 137 4.2 7.8 12.4 12.6 21.2 12.6h69.6c19 0.2 30.4-20.8 20.2-36.8zM768 716.2v-12.2h-256v256h12.2c12.8 0 25-5 34-14l195.8-196c9-9 14-21.2 14-33.8z" />
<glyph unicode="&#xea41;" glyph-name="file-image" horiz-adv-x="768" d="M768 716.118v-12.118h-256v256h12.118c13.254 0 25.254-5.372 33.94-14.058l195.882-195.882c8.687-8.687 14.059-20.687 14.060-33.942v0zM496 640c-26.4 0-48 21.6-48 48v272h-400c-26.51 0-48-21.49-48-48v-928c0-26.51 21.49-48 48-48h672c26.51 0 48 21.49 48 48v656h-272zM225.090 608c53.020 0 96-42.98 96-96s-42.98-96-96-96-96 42.98-96 96 42.982 96 96 96zM641.090 128h-512l0.97 96.97 79.030 79.030c9.372 9.372 23.598 8.402 32.97-0.97l79.030-79.030 207.030 207.030c9.372 9.372 24.568 9.372 33.942 0l79.028-79.030v-224z" />
<glyph unicode="&#xea43;" glyph-name="file-invoice" horiz-adv-x="768" d="M576 448h-384v-128h384v128zM754 750l-195.8 196c-9 9-21.2 14-34 14h-12.2v-256h256v12.2c0 12.6-5 24.8-14 33.8zM448 688v272h-400c-26.6 0-48-21.4-48-48v-928c0-26.6 21.4-48 48-48h672c26.6 0 48 21.4 48 48v656h-272c-26.4 0-48 21.6-48 48zM128 816c0 8.84 7.16 16 16 16h160c8.84 0 16-7.16 16-16v-32c0-8.84-7.16-16-16-16h-160c-8.84 0-16 7.16-16 16v32zM128 688c0 8.84 7.16 16 16 16h160c8.84 0 16-7.16 16-16v-32c0-8.84-7.16-16-16-16h-160c-8.84 0-16 7.16-16 16v32zM640 80c0-8.84-7.16-16-16-16h-160c-8.84 0-16 7.16-16 16v32c0 8.84 7.16 16 16 16h160c8.84 0 16-7.16 16-16v-32zM640 480v-192c0-17.68-14.32-32-32-32h-448c-17.68 0-32 14.32-32 32v192c0 17.68 14.32 32 32 32h448c17.68 0 32-14.32 32-32z" />
<glyph unicode="&#xea47;" glyph-name="file-pdf" horiz-adv-x="768" d="M363.8 447.8c-10 32-9.8 93.8-4 93.8 16.8 0 15.2-73.8 4-93.8zM360.4 353.4c-15.4-40.4-34.6-86.6-56.8-125.4 36.6 14 78 34.4 125.8 43.8-25.4 19.2-49.8 46.8-69 81.6zM172.2 103.8c0-1.6 26.4 10.8 69.8 80.4-13.4-12.6-58.2-49-69.8-80.4zM496 640h272v-656c0-26.6-21.4-48-48-48h-672c-26.6 0-48 21.4-48 48v928c0 26.6 21.4 48 48 48h400v-272c0-26.4 21.6-48 48-48zM480 296.4c-40 24.4-66.6 58-85.4 107.6 9 37 23.2 93.2 12.4 128.4-9.4 58.8-84.8 53-95.6 13.6-10-36.6-0.8-88.2 16.2-154-23.2-55.2-57.4-129.2-81.6-171.6-0.2 0-0.2-0.2-0.4-0.2-54.2-27.8-147.2-89-109-136 11.2-13.8 32-20 43-20 35.8 0 71.4 36 122.2 123.6 51.6 17 108.2 38.2 158 46.4 43.4-23.6 94.2-39 128-39 58.4 0 62.4 64 39.4 86.8-27.8 27.2-108.6 19.4-147.2 14.4zM754 750l-196 196c-9 9-21.2 14-34 14h-12v-256h256v12.2c0 12.6-5 24.8-14 33.8zM605.8 239.4c8.2 5.4-5 23.8-85.6 18 74.2-31.6 85.6-18 85.6-18z" />
<glyph unicode="&#xea48;" glyph-name="file-powerpoint" horiz-adv-x="768" d="M387.4 417.6c17.6 0 31-5.4 40.6-16.2 19.2-21.8 19.6-65.4-0.4-88.2-9.8-11.2-23.8-17-42.2-17h-53.8v121.4h55.8zM754 750l-196 196c-9 9-21.2 14-34 14h-12v-256h256v12.2c0 12.6-5 24.8-14 33.8zM448 688v272h-400c-26.6 0-48-21.4-48-48v-928c0-26.6 21.4-48 48-48h672c26.6 0 48 21.4 48 48v656h-272c-26.4 0-48 21.6-48 48zM554 357.6c0-180.6-177.6-155.2-222.2-155.2v-114.4c0-13.2-10.8-24-24-24h-61.6c-13.2 0-24 10.8-24 24v399.6c0 13.2 10.8 24 24 24h162c89 0 145.8-65.6 145.8-154z" />
<glyph unicode="&#xea4b;" glyph-name="file-upload" horiz-adv-x="768" d="M448 688v272h-400c-26.6 0-48-21.4-48-48v-928c0-26.6 21.4-48 48-48h672c26.6 0 48 21.4 48 48v656h-272c-26.4 0-48 21.6-48 48zM578.36 255.98h-130.36v-160c0-17.68-14.32-32-32-32h-64c-17.68 0-32 14.32-32 32v160h-130.36c-28.56 0-42.82 34.58-22.54 54.72l192.84 191.4c13.3 13.22 34.78 13.22 48.080 0l192.84-191.4c20.3-20.14 6.060-54.72-22.5-54.72zM754 750l-195.8 196c-9 9-21.2 14-34 14h-12.2v-256h256v12.2c0 12.6-5 24.8-14 33.8z" />
<glyph unicode="&#xea4c;" glyph-name="file-video" horiz-adv-x="768" d="M768 716.118v-12.118h-256v256h12.118c12.73 0 24.94-5.058 33.942-14.058l195.882-195.882c8.685-8.687 14.057-20.687 14.058-33.942v0zM448 688v272h-400c-26.51 0-48-21.49-48-48v-928c0-26.51 21.49-48 48-48h672c26.51 0 48 21.49 48 48v656h-272c-26.4 0-48 21.6-48 48zM640 399.968v-223.926c0-42.89-51.886-63.996-81.942-33.942l-110.058 110.018v-76.118c0-26.51-21.49-48-48-48h-224c-26.51 0-48 21.49-48 48v224c0 26.51 21.49 48 48 48h224c26.51 0 48-21.49 48-48v-76.118l110.058 110.026c30.022 30.020 81.942 8.982 81.942-33.94z" />
<glyph unicode="&#xea4d;" glyph-name="file-word" horiz-adv-x="768" d="M448 688v272h-400c-26.6 0-48-21.4-48-48v-928c0-26.6 21.4-48 48-48h672c26.6 0 48 21.4 48 48v656h-272c-26.4 0-48 21.6-48 48zM562.2 448h47.8c15.4 0 26.8-14.2 23.4-29.4l-76-336c-2.4-11-12.2-18.6-23.4-18.6h-76c-11 0-20.6 7.6-23.2 18.2-51.6 207-41.6 162.4-51.2 221h-1c-2.2-28.6-4.8-34.8-51.2-221-2.6-10.6-12.2-18.2-23.2-18.2h-74.2c-11.2 0-21 7.8-23.4 18.8l-75.6 336c-3.4 15 8 29.2 23.4 29.2h49c11.4 0 21.4-8 23.6-19.4 31.2-156 40.2-219 42-244.4 3.2 20.4 14.6 65.4 58.8 245.4 2.6 10.8 12.2 18.2 23.4 18.2h58.2c11.2 0 20.8-7.6 23.4-18.4 48-200.8 57.6-248 59.2-258.8-0.4 22.4-5.2 35.6 43.2 258.4 2 11.2 11.8 19 23 19zM768 716.2v-12.2h-256v256h12.2c12.8 0 25-5 34-14l195.8-196c9-9 14-21.2 14-33.8z" />
<glyph unicode="&#xea4f;" glyph-name="fill-drip" horiz-adv-x="1152" d="M1024 320s-128-185.3-128-256c0-70.7 57.32-128 128-128s128 57.3 128 128-128 256-128 256zM1005.26 525.88l-415.38 415.38c-12.5 12.5-28.88 18.74-45.26 18.74s-32.76-6.24-45.24-18.74l-163.16-163.16-172.36 172.38c-12.5 12.5-32.76 12.5-45.24 0l-45.24-45.24c-12.48-12.5-12.48-32.76 0-45.24l172.38-172.36-189.52-189.52c-74.98-74.96-74.98-196.52 0-271.5l234.38-234.38c37.48-37.48 86.62-56.24 135.74-56.24 49.14 0 98.26 18.74 135.74 56.24l443.14 443.14c25 25 25 65.5 0.020 90.5zM772.82 383.94h-640.96c2.72 7.68 7.14 15.96 14.86 23.66l189.52 189.52 117.2-117.2c24.98-24.98 65.5-24.98 90.48 0s24.98 65.5 0 90.48l-117.2 117.2 117.9 117.9 324.88-324.88-96.68-96.68z" />
<glyph unicode="&#xea51;" glyph-name="filter" d="M975.952 960h-927.896c-42.636 0-64.15-51.732-33.94-81.942l369.884-369.94v-412.118c0-15.662 7.642-30.34 20.474-39.324l160-111.96c31.566-22.096 75.526 0.298 75.526 39.324v524.078l369.894 369.94c30.148 30.15 8.782 81.942-33.942 81.942z" />
<glyph unicode="&#xea52;" glyph-name="fingerprint" d="M512.24 468.080c-26.5 0-48-21.48-48-48 2.28-144.5-16.28-283.8-55.4-423.1-5.46-19.44 4.3-60.98 46.24-60.98 20.96 0 40.22 13.84 46.18 35.040 27.060 95.82 62.080 250.82 58.96 449.040 0.020 26.5-21.46 48-47.98 48zM510.52 631.54c-122.52 0.14-208.020-94.14-206.32-202.18 1.5-95.88-7.5-191.82-26.74-285.1-5.38-25.96 11.34-51.38 37.28-56.72 26.1-5.34 51.34 11.32 56.72 37.28 20.68 100.18 30.34 203.16 28.74 306.040-0.82 51.9 39.84 104.98 108.9 104.68 62.62-0.94 114.3-50.68 115.24-110.94 1.54-96.1-5.62-192.66-21.22-287.1-4.34-26.12 13.38-50.84 39.52-55.16 39.94-6.66 53.62 30.2 55.16 39.54 16.56 100.060 24.12 202.42 22.54 304.22-1.76 111.6-95.88 203.76-209.82 205.44zM289.14 671.1c-20.6 16.68-50.74 13.6-67.52-6.96-51.24-63-78.78-142.56-77.5-224 1.18-75.16-4.94-150.54-18.22-224.1-4.68-26.1 12.62-51.060 38.72-55.78 40.22-7 54.14 29.62 55.78 38.72 14.38 79.68 21 161.32 19.72 242.66-0.94 59.76 18.4 115.76 56 161.94 16.7 20.56 13.58 50.78-6.98 67.52zM508.080 795.76c-30.82 0.82-61.74-2.88-91.56-9.94-25.78-6.12-41.74-31.96-35.66-57.78 6.12-25.78 32-41.66 57.78-35.66 22.1 5.22 44.94 7.54 68 7.38 150.86-2.26 275.46-123 277.76-269.16 1.18-75.76-2.56-152.22-11.16-227.26-3-26.34 15.9-50.16 42.22-53.16 33.44-3.9 51.020 23.76 53.16 42.22 7.643 63.285 12.004 136.566 12.004 210.866 0 10.138-0.081 20.257-0.243 30.356l0.019-1.522c-3.12 197.5-170.14 360.66-372.32 363.66zM1012.22 552.86c-5.72 25.84-31.020 42.4-57.22 36.54-25.88-5.72-42.24-31.32-36.52-57.22 9.42-42.82 9.82-74.82 9.4-123.2-0.22-26.54 21.1-48.18 47.6-48.4h0.4c26.34 0 47.78 21.22 48 47.6 0.36 44.36 0.8 88.22-11.66 144.68zM931.98 734.3c-97.4 138.78-256.78 223.12-426.36 225.66-139.58 1.68-268.68-49.78-364.7-145.84-92.74-92.86-142.72-216.2-140.64-347.42l-0.24-42.94c-0.78-26.5 20.060-48.62 46.56-49.38 0.46-0.040 0.96-0.040 1.44-0.040 25.84 0 47.18 20.6 47.94 46.6l0.32 47.28c-1.66 105 38.32 203.72 112.56 278 77.52 77.6 182.68 119.34 295.36 117.72 138.9-2.060 269.46-71.12 349.24-184.78 15.22-21.72 45.12-26.9 66.84-11.72 21.68 15.24 26.92 45.18 11.68 66.86z" />
<glyph unicode="&#xea53;" glyph-name="fire" horiz-adv-x="768" d="M432 912.28c0 47.6-61.3 65.54-88.3 26.080-247.7-362.060 104.3-378.36 104.3-554.36 0-71.26-58.22-128.92-129.7-127.98-70.34 0.9-126.3 59.54-126.3 129.88v171.020c0 43.4-52.94 64.46-82.86 33-53.54-56.24-109.14-152.58-109.14-269.92 0-211.74 172.26-384 384-384s384 172.26 384 384c0 340.58-336 386-336 592.28z" />
<glyph unicode="&#xea54;" glyph-name="fire-alt" horiz-adv-x="896" d="M647.12 857.6c-41.6-38.6-79.16-79.18-112.44-119.94-54.52 75.1-122.12 151.28-198.68 222.34-196.52-182.34-336-419.92-336-563.2 0-254.5 200.58-460.8 448-460.8s448 206.3 448 460.8c0 106.54-103.96 326.28-248.88 460.8zM608.18 176.3c-43.32-30.32-96.74-48.3-154.46-48.3-144.3 0-261.72 95.48-261.72 250.5 0 77.22 48.62 145.26 145.58 261.5 13.86-15.96 197.66-250.68 197.66-250.68l117.26 133.76c8.28-13.7 15.82-27.1 22.54-39.94 54.7-104.38 31.62-237.94-66.86-306.84z" />
<glyph unicode="&#xea59;" glyph-name="flag" d="M699.13 762.434c-107.174 0-195.688 69.566-330.434 69.566-49.91 0-94.618-8.768-136.090-24.026 4.683 11.873 7.398 25.625 7.398 40.011 0 2.502-0.082 4.986-0.244 7.447l0.018-0.335c-3.544 56.872-50.166 102.49-107.102 104.806-63.986 2.604-116.676-48.496-116.676-111.904 0-38.052 18.994-71.65 48-91.89v-772.11c0-26.51 21.49-48 48-48h32c26.51 0 48 21.49 48 48v188.8c56.622 24.128 127.164 44.244 228.87 44.244 107.176 0 195.688-69.566 330.434-69.566 96.338 0 173.334 32.588 245.010 81.716 17.366 11.902 27.686 31.664 27.686 52.716v486.2c0 46.786-48.538 77.74-90.97 58.032-68.676-31.896-152.908-63.708-233.9-63.708z" />
<glyph unicode="&#xea5c;" glyph-name="flask" horiz-adv-x="896" d="M874.4 153l-234.4 377v302h16c26.6 0 48 21.4 48 48v32c0 26.6-21.4 48-48 48h-416c-26.6 0-48-21.4-48-48v-32c0-26.6 21.4-48 48-48h16v-302l-234.4-377c-58.6-94.2 9-217 120.2-217h612.4c111.4 0 178.8 123 120.2 217zM275.8 320l96.4 155.2c7.4 10.4 11.6 23.2 11.6 36.8v320h128v-320c0-13.8 4.4-26.4 11.6-36.8l96.4-155.2h-344z" />
<glyph unicode="&#xea5e;" glyph-name="folder" d="M928 704h-384l-128 128h-320c-53.020 0-96-42.98-96-96v-576c0-53.020 42.98-96 96-96h832c53.020 0 96 42.98 96 96v448c0 53.020-42.98 96-96 96z" />
<glyph unicode="&#xea60;" glyph-name="folder-open" horiz-adv-x="1152" d="M1145.388 375.814l-144.848-248.31c-22.607-38.251-63.634-63.504-110.56-63.504-0.001 0-0.002 0-0.002 0h-799.928c-37.046 0-60.128 40.186-41.462 72.186l144.848 248.31c22.608 38.251 63.637 63.504 110.563 63.504 0 0 0 0 0.001 0h799.928c37.046 0 60.128-40.186 41.46-72.186zM304 512h656v96c0 53.020-42.98 96-96 96h-320l-128 128h-320c-53.020 0-96-42.98-96-96v-556.092l138.154 236.836c34.274 58.756 97.824 95.256 165.846 95.256z" />
<glyph unicode="&#xea62;" glyph-name="font" horiz-adv-x="896" d="M864 128h-46.82l-261.42 724.62c-8.847 25.444-32.623 43.38-60.587 43.38-0.004 0-0.009 0-0.013 0h-94.319c-0.004 0-0.008 0-0.013 0-27.965 0-51.74-17.936-60.451-42.931l-0.136-0.449-261.42-724.62h-46.82c-17.673 0-32-14.327-32-32v0-64c0-17.673 14.327-32 32-32v0h256c17.673 0 32 14.327 32 32v0 64c0 17.673-14.327 32-32 32v0h-39.16l46.6 128h305.12l46.6-128h-39.16c-17.673 0-32-14.327-32-32v0-64c0-17.673 14.327-32 32-32v0h256c17.673 0 32 14.327 32 32v0 64c0 17.673-14.327 32-32 32v0zM353.7 416l94.3 258.98 94.3-258.98z" />
<glyph unicode="&#xea6d;" glyph-name="gavel" d="M1009.942 561.276l-45.254 45.254c-18.746 18.746-49.138 18.746-67.882 0l-11.314-11.314-226.276 226.274 11.314 11.314c18.746 18.746 18.746 49.138 0 67.882l-45.254 45.256c-18.746 18.746-49.138 18.746-67.882 0l-248.902-248.902c-18.746-18.746-18.746-49.138 0-67.882l45.254-45.254c18.746-18.746 49.138-18.746 67.882 0l11.314 11.314 79.196-79.196-162.080-162.080-11.314 11.314c-24.994 24.994-65.516 24.994-90.51 0l-229.488-229.492c-24.994-24.994-24.994-65.516 0-90.51l90.51-90.51c24.994-24.994 65.516-24.994 90.51 0l229.49 229.49c24.994 24.994 24.994 65.516 0 90.51l-11.314 11.314 162.080 162.080 79.196-79.196-11.314-11.314c-18.746-18.746-18.746-49.138 0-67.882l45.254-45.254c18.746-18.746 49.138-18.746 67.882 0l248.902 248.902c18.744 18.744 18.744 49.136 0 67.882z" />
<glyph unicode="&#xea6e;" glyph-name="gem" horiz-adv-x="1152" d="M971 960l181-320h-202.2l-138.4 320h159.6zM715 960l138.4-320h-554.8l138.4 320h278zM181 960h159.6l-138.4-320h-202.2l181 320zM0 576h201.4l246-503.4c3-6.2-5.4-11.8-10-6.6l-437.4 510zM296.4 576h559.2l-274-636.4c-2-4.8-9-4.8-11 0l-274.2 636.4zM704.6 72.6l246 503.4h201.4l-437.4-509.8c-4.6-5.4-13 0.2-10 6.4z" />
<glyph unicode="&#xea6f;" glyph-name="genderless" horiz-adv-x="576" d="M288 608c88.2 0 160-71.8 160-160s-71.8-160-160-160-160 71.8-160 160 71.8 160 160 160zM288 736c-159 0-288-129-288-288s129-288 288-288 288 129 288 288-129 288-288 288z" />
<glyph unicode="&#xea71;" glyph-name="gift" d="M64 64c0-35.4 28.6-64 64-64h320v320h-384v-256zM576 0h320c35.4 0 64 28.6 64 64v256h-384v-320zM960 640h-84.2c12.4 24.2 20.2 51 20.2 80 0 97-79 176-176 176-83.2 0-137-42.6-206-136.6-69 94-122.8 136.6-206 136.6-97 0-176-79-176-176 0-29 7.6-55.8 20.2-80h-88.2c-35.4 0-64-28.6-64-64v-160c0-17.6 14.4-32 32-32h960c17.6 0 32 14.4 32 32v160c0 35.4-28.6 64-64 64zM307.8 640c-44.2 0-80 35.8-80 80s35.8 80 80 80c39.8 0 69.2-6.6 172.2-160h-172.2zM720 640h-172.2c102.8 153 131.4 160 172.2 160 44.2 0 80-35.8 80-80s-35.8-80-80-80z" />
<glyph unicode="&#xea72;" glyph-name="gifts" horiz-adv-x="1280" d="M481.2 571.8c3.8 61.6 34.6 122.4 88 159.6-10.4 21.6-31.8 36.6-57.2 36.6h-58.8l61.4 44c14.4 10.2 17.8 30.2 7.4 44.6l-18.6 26c-10.2 14.4-30.2 17.8-44.6 7.4l-64-45.8 23 61.2c6.2 16.6-2.2 35-18.8 41.2l-30 11.2c-16.6 6.2-35-2.2-41.2-18.8l-39.8-106-39.8 106.2c-6.2 16.6-24.6 25-41.2 18.8l-30-11.2c-16.6-6.2-25-24.8-18.6-41.2l23-61.2-64.2 45.6c-14.4 10.2-34.4 7-44.6-7.4l-18.6-26c-10.2-14.4-7-34.4 7.4-44.6l61.4-44h-58.8c-35.4 0-64-28.6-64-64v-704c0-35.4 28.6-64 64-64h337.8c-11 19-17.8 40.6-17.8 64v448c0 59.8 41.6 110 97.2 123.8zM448 0c0-35.4 28.6-64 64-64h320v256h-384v-192zM896-64h320c35.4 0 64 28.6 64 64v192h-384v-256zM1216 512h-40.8c5.2 15.2 8.8 31 8.8 47.6 0 71-54 144.4-144.2 144.4-96.2 0-151.8-95.4-175.8-150.6-24.2 55.2-79.8 150.6-175.8 150.6-90.2 0-144.2-73.4-144.2-144.4 0-16.6 3.4-32.4 8.8-47.6h-40.8c-35.4 0-64-28.6-64-64v-192h384v256h30.6l1.4 0.4 1.4-0.4h30.6v-256h384v192c0 35.4-28.6 64-64 64zM672 512c-5.4 2.8-10.2 6-14.4 9.6-14.6 12.8-17.6 27.6-17.6 38 0 19.4 12.8 48.4 48.2 48.4 37.4 0 71.2-54.8 89-96h-105.2zM1070.4 521.6c-4.2-3.6-9-6.8-14.4-9.6h-105.2c17.6 40.6 51.6 96 89 96 35.4 0 48.2-29 48.2-48.4 0-10.4-3-25.2-17.6-38z" />
<glyph unicode="&#xea78;" glyph-name="globe" horiz-adv-x="992" d="M673 640c-29 178.6-97.4 304-177 304s-148-125.4-177-304h354zM304 448c0-44.4 2.4-87 6.6-128h370.6c4.2 41 6.6 83.6 6.6 128s-2.4 87-6.6 128h-370.6c-4.2-41-6.6-83.6-6.6-128zM953.4 640c-57.2 135.8-173 240.8-316 283.2 48.8-67.6 82.4-169.4 100-283.2h216zM354.4 923.2c-142.8-42.4-258.8-147.4-315.8-283.2h216c17.4 113.8 51 215.6 99.8 283.2zM974.8 576h-229.4c4.2-42 6.6-85 6.6-128s-2.4-86-6.6-128h229.2c11 41 17.2 83.6 17.2 128s-6.2 87-17 128zM240 448c0 43 2.4 86 6.6 128h-229.4c-10.8-41-17.2-83.6-17.2-128s6.4-87 17.2-128h229.2c-4 42-6.4 85-6.4 128zM319 256c29-178.6 97.4-304 177-304s148 125.4 177 304h-354zM637.6-27.2c142.8 42.4 258.8 147.4 316 283.2h-216c-17.6-113.8-51.2-215.6-100-283.2zM38.6 256c57.2-135.8 173-240.8 316-283.2-48.8 67.6-82.4 169.4-100 283.2h-216z" />
<glyph unicode="&#xea79;" glyph-name="globe-africa" horiz-adv-x="992" d="M496 944c-273.94 0-496-222.060-496-496s222.060-496 496-496 496 222.060 496 496-222.060 496-496 496zM816 513v-13.86c0-11.74-6.64-22.48-17.14-27.72l-30.78-15.4c-4.038-2.065-8.808-3.275-13.861-3.275-6.411 0-12.367 1.948-17.309 5.285l0.11-0.070-36.42 24.28c-4.836 3.261-10.794 5.206-17.206 5.206-3.503 0-6.871-0.58-10.012-1.65l0.219 0.065-5.3-1.76c-19.4-6.46-27.32-29.58-15.98-46.6l26.48-39.72c5.74-8.62 15.42-13.8 25.78-13.8h16.42c17.12 0 31-13.88 31-31v-22.68c0-6.7-2.18-13.24-6.2-18.6l-37.48-49.96c-2.84-3.8-4.78-8.2-5.66-12.86l-8.6-45.66c-1.24-6.58-4.58-12.58-9.52-17.12-18.721-17.183-35.201-36.307-49.279-57.185l-0.721-1.135-26.060-39.1c-10.096-14.988-27.001-24.717-46.18-24.72v0c-21.020 0-40.24 11.88-49.64 30.68-10.505 20.561-16.66 44.848-16.66 70.572 0 0.003 0 0.005 0 0.008v0 59.78c0 17.12-13.88 31-31 31h-51.76c-28.98 0-56.76 11.52-77.26 32-19.767 19.776-31.994 47.089-32 77.259v28.121c0 34.38 16.2 66.76 43.7 87.4l55.16 41.38c18.035 13.642 40.838 21.853 65.558 21.86h1.782c16.96 0 33.7-3.94 48.86-11.54l29.44-14.72c7.36-3.68 15.86-4.28 23.66-1.68l94.62 31.54c12.66 4.22 21.2 16.060 21.2 29.4 0 17.12-13.88 31-31 31h-20.18c-8.22 0-16.1 3.26-21.92 9.080l-13.84 13.84c-5.608 5.61-13.356 9.080-21.915 9.080-0.002 0-0.004 0-0.005 0h-180.1c-17.12 0-31 13.88-31 31v8.8c0 14.22 9.68 26.62 23.48 30.080l28.9 7.22c7.48 1.88 14 6.46 18.28 12.88l16.16 24.22c5.74 8.62 15.42 13.8 25.78 13.8h48.42c17.12 0 31 13.88 31 31v43.4c158.44-25.68 285.7-144.46 323.84-298.42h-36.86c-17.12 0-31-13.88-31-31z" />
<glyph unicode="&#xea7f;" glyph-name="graduation-cap" horiz-adv-x="1280" d="M1244.68 653.6l-557.88 171.4c-30.4 9.34-63.2 9.34-93.58 0l-557.9-171.4c-47.080-14.46-47.080-76.72 0-91.18l97.26-29.88c-21.34-26.38-34.46-58.56-35.76-93.8-19.26-11.040-32.82-30.96-32.82-54.74 0-21.56 11.36-39.7 27.72-51.3l-51.060-229.76c-4.44-19.98 10.76-38.94 31.22-38.94h112.22c20.48 0 35.68 18.96 31.24 38.94l-51.060 229.76c16.36 11.6 27.72 29.74 27.72 51.3 0 23.14-12.94 42.5-31.32 53.74 1.52 30.040 16.88 56.6 41.38 73.44l391.14-120.18c18.12-5.56 52.88-12.5 93.58 0l557.9 171.4c47.1 14.48 47.1 76.72 0 91.2zM705.58 329.82c-57.060-17.52-105.68-7.84-131.18 0l-290.040 89.1-28.36-226.92c0-70.7 171.92-128 384-128s384 57.3 384 128l-28.36 226.94-290.060-89.12z" />
<glyph unicode="&#xea96;" glyph-name="hammer" horiz-adv-x="1152" d="M1142.62 572.12l-45.26 45.26c-12.5 12.5-32.76 12.5-45.26 0l-22.62-22.62-57.8 57.8c11.26 42.62 0.72 89.8-32.7 123.22l-90.5 90.5c-124.96 124.96-327.58 124.96-452.56 0l181.020-90.5v-37.5c0-33.94 13.48-66.5 37.5-90.5l98.28-98.28c33.42-33.42 80.6-43.96 123.22-32.7l57.8-57.8-22.62-22.62c-12.5-12.5-12.5-32.76 0-45.26l45.26-45.26c12.5-12.5 32.76-12.5 45.26 0l181.020 181.020c12.46 12.48 12.46 32.74-0.040 45.24zM569.18 602.52c-7.4 7.4-13.68 15.58-19.7 23.9l-510.2-476.34c-51.14-47.76-52.52-128.38-3.060-177.86s130.1-48.1 177.86 3.060l476.26 510.14c-7.92 5.82-15.8 11.74-22.88 18.82l-98.28 98.28z" />
<glyph unicode="&#xea99;" glyph-name="hand-holding-heart" horiz-adv-x="1152" d="M550.6 459c14-14.8 36.8-14.8 51 0l217.8 228.4c63.2 66.4 59.6 176.4-11.2 237.6-61.6 53.4-153.4 43.8-209.8-15.4l-22.4-23.4-22.2 23.2c-56.4 59.4-148.2 69-209.8 15.6-70.6-61.2-74.4-171.2-11.2-237.6l217.8-228.4zM1130.6 303.8c-23.6 21.4-60.4 20-85.2 0l-184.8-147.8c-22.6-18.2-50.8-28-80-28h-236.6c-17.6 0-32 14.4-32 32s14.4 32 32 32h156.6c31.8 0 61.4 21.8 66.6 53.2 6.6 40-24.2 74.8-63.2 74.8h-320c-54 0-106.2-18.6-148.2-52.6l-93-75.4h-110.8c-17.6 0-32-14.4-32-32v-192c0-17.6 14.4-32 32-32h713.6c29 0 57.2 9.8 80 28l302.4 242c30.4 24.2 32.8 70.6 2.6 97.8z" />
<glyph unicode="&#xea9a;" glyph-name="hand-holding-usd" horiz-adv-x="1152" d="M542.12 671.4l108.54-28.6c7.488-1.795 13.010-8.319 13.259-16.173l0.001-0.027c0-9.2-8.18-16.8-18.24-16.8h-71.2c-8.072 0.024-15.761 1.639-22.778 4.546l0.398-0.146c-10.48 4.4-22.56 3.4-30.6-4l-38-35c-1.739-1.527-3.23-3.279-4.443-5.222l-0.057-0.098c-2.096-3.386-3.338-7.493-3.338-11.889 0-8.278 4.404-15.528 10.997-19.534l0.101-0.057c19.786-12.070 43.21-20.269 68.287-22.937l0.733-0.063v-35.4c0-17.6 15.66-32 34.74-32h34.74c19.1 0 34.76 14.4 34.76 32v35.2c65.86 7.2 115.68 62 107 126-6.3 46-44.92 82.6-93.12 95.4l-108.54 28.6c-7.488 1.795-13.010 8.319-13.259 16.173l-0.001 0.027c0 9.2 8.18 16.8 18.24 16.8h71.2c8.099-0.013 15.816-1.628 22.858-4.546l-0.398 0.146c10.46-4.4 22.56-3.4 30.6 4l38 35c1.679 1.492 3.118 3.205 4.284 5.102l0.056 0.098c2.127 3.407 3.388 7.544 3.388 11.976 0 8.269-4.391 15.513-10.968 19.527l-0.101 0.057c-19.793 12.069-43.224 20.269-68.307 22.937l-0.733 0.063v35.44c0 17.6-15.64 32-34.74 32h-34.74c-19.1 0-34.74-14.4-34.74-32v-35.2c-65.78-7.2-115.7-62-107.020-126 6.28-46 45.020-82.6 93.14-95.4zM1130.54 303.8c-23.6 21.4-60.4 20-85.2 0l-184.8-147.8c-21.6-17.443-49.391-28-79.648-28-0.124 0-0.248 0-0.372 0.001h-236.521c-17.673 0-32 14.327-32 32s14.327 32 32 32v0h156.58c31.8 0 61.42 21.8 66.5 53.2 0.586 3.21 0.92 6.905 0.92 10.678 0 0.085 0 0.17-0.001 0.255v-0.013c-0.068 35.295-28.696 63.88-64 63.88 0 0 0 0 0 0h-320c-56.373-0.015-108.11-19.851-148.624-52.916l0.424 0.336-93-75.42h-110.8c-17.673 0-32-14.327-32-32v0-192c0-17.673 14.327-32 32-32v0h713.54c0.030 0 0.065 0 0.1 0 30.339 0 58.212 10.555 80.148 28.193l-0.248-0.193 302.46 242c14.698 11.827 24.025 29.814 24.025 49.98 0 18.988-8.269 36.044-21.402 47.765l-0.063 0.055z" />
<glyph unicode="&#xea9d;" glyph-name="hand-paper" horiz-adv-x="896" d="M817.562 703.986c-44.85 0.858-81.562-36.706-81.562-81.566v-174.42h-16v352.42c0 44.86-36.712 82.424-81.562 81.566-43.462-0.832-78.438-36.324-78.438-79.986v-354h-16v430.42c0 44.86-36.712 82.424-81.562 81.566-43.462-0.832-78.438-36.324-78.438-79.986v-432h-16v350.42c0 44.86-36.712 82.424-81.562 81.566-43.462-0.832-78.438-36.324-78.438-79.986v-471.984l-63.296 87.038c-25.986 35.732-76.018 43.634-111.754 17.646-35.73-25.988-43.63-76.020-17.644-111.754l251.202-345.41c17.658-24.078 45.843-39.536 77.638-39.536h395.18c44.548 0 83.244 30.648 93.448 74.012l53.016 225.32c6.487 26.419 10.208 56.75 10.208 87.95v0 300.718c0.002 43.662-34.974 79.154-78.436 79.986z" />
<glyph unicode="&#xeaa1;" glyph-name="hand-point-left" d="M89.6 648.348h298.468c-11.682 16.496-21.14 33.116-28.306 49.836-27.266 63.62 19.794 133.844 88.238 133.816 37.232-0.016 64.406-21.794 80-58.184 24.244-56.572 157.296-128.658 215.068-154.646 35.714-15.912 56.906-50.958 56.928-87.69l0.004-0.002v-343.052c0-23.624-17.192-43.794-40.538-47.406-93.674-14.5-123.52-76.966-247.462-76.63-5.448 0.014-26.508-0.39-32-0.39-101.308 0-163.148 44.244-145.2 142.526-37.194 18.594-61.476 78.972-32.9 124.63-49.29 42.354-45.278 107.792-12.598 141.888h-199.702c-48.3 0-89.6 40.402-89.6 87.652 0 46.566 42.7 87.652 89.6 87.652zM880 608h96c26.51 0 48-21.49 48-48v-384c0-26.51-21.49-48-48-48h-96c-26.51 0-48 21.49-48 48v384c0 26.51 21.49 48 48 48zM928 184c22.092 0 40 17.908 40 40s-17.908 40-40 40-40-17.908-40-40 17.908-40 40-40z" />
<glyph unicode="&#xeaa2;" glyph-name="hand-point-right" d="M1024 560.696c0-47.25-41.3-87.652-89.6-87.652h-199.702c32.68-34.096 36.692-99.532-12.598-141.888 28.576-45.658 4.294-106.034-32.9-124.63 17.948-98.282-43.892-142.526-145.2-142.526-5.492 0-26.552 0.406-32 0.39-123.942-0.336-153.788 62.13-247.462 76.63-23.346 3.614-40.538 23.782-40.538 47.408v343.050l0.004 0.002c0.022 36.732 21.214 71.778 56.928 87.69 57.772 25.988 190.826 98.076 215.068 154.646 15.594 36.388 42.768 58.168 80 58.184 68.444 0.028 115.504-70.196 88.238-133.816-7.166-16.718-16.624-33.34-28.306-49.836h298.468c46.9 0 89.6-41.086 89.6-87.652zM192 560v-384c0-26.51-21.49-48-48-48h-96c-26.51 0-48 21.49-48 48v384c0 26.51 21.49 48 48 48h96c26.51 0 48-21.49 48-48zM136 224c0 22.092-17.908 40-40 40s-40-17.908-40-40 17.908-40 40-40 40 17.908 40 40z" />
<glyph unicode="&#xeaa3;" glyph-name="hand-point-up" horiz-adv-x="768" d="M271.304 960c47.25 0 87.652-41.3 87.652-89.6v-199.702c34.096 32.68 99.532 36.692 141.888-12.598 45.658 28.576 106.034 4.294 124.63-32.9 98.282 17.948 142.526-43.892 142.526-145.2 0-5.492-0.406-26.552-0.39-32 0.336-123.942-62.13-153.788-76.63-247.462-3.614-23.346-23.782-40.538-47.408-40.538l-343.052 0.004c-36.732 0.022-71.778 21.214-87.69 56.928-25.988 57.772-98.076 190.824-154.646 215.068-36.39 15.594-58.168 42.768-58.184 80-0.028 68.444 70.196 115.504 133.816 88.238 16.718-7.166 33.34-16.624 49.836-28.306v298.468c0 46.9 41.086 89.6 87.652 89.6zM272 128h384c26.51 0 48-21.49 48-48v-96c0-26.51-21.49-48-48-48h-384c-26.51 0-48 21.49-48 48v96c0 26.51 21.49 48 48 48zM608 72c-22.092 0-40-17.908-40-40s17.908-40 40-40 40 17.908 40 40-17.908 40-40 40z" />
<glyph unicode="&#xeaa5;" glyph-name="hands" horiz-adv-x="1280" d="M409.6 499.2c-21.2 28.2-61.4 34-89.6 12.8s-34-61.4-12.8-89.6l76.2-101.6c9.6-12.8 8.2-30.6-3-41.8l-25.6-25.6c-13.4-13.4-35.2-12.4-47.2 2.2l-179.6 215.6v296.8c0 35.4-28.6 64-64 64s-64-28.6-64-64v-436.8c0-21.8 7.4-43 21-60l208.2-268.6c10-13 16.8-27.8 20.8-43.4 3.6-13.8 16.2-23.2 30.6-23.2h263.4c17.6 0 32 14.4 32 32v224c0 55.4-18 109.2-51.2 153.6l-115.2 153.6zM1216 832c-35.4 0-64-28.6-64-64v-296.8l-179.6-215.6c-12-14.4-34-15.4-47.2-2.2l-25.6 25.6c-11.2 11.2-12.6 29-3 41.8l76.2 101.6c21.2 28.2 15.4 68.4-12.8 89.6s-68.4 15.4-89.6-12.8l-115.2-153.6c-33.2-44.4-51.2-98.2-51.2-153.6v-224c0-17.6 14.4-32 32-32h263.4c14.2 0 27 9.4 30.6 23.2 4 15.6 10.8 30.4 20.8 43.4l208.2 268.6c13.6 17 21 38.2 21 60v436.8c0 35.4-28.6 64-64 64z" />
<glyph unicode="&#xeaa7;" glyph-name="handshake" horiz-adv-x="1280" d="M869.4 832h-171.8c-16 0-31.4-6-43.2-16.8l-196.6-180c-0.2-0.2-0.4-0.6-0.6-0.8-33.2-31.2-32.6-81-4.2-112 25.4-27.8 78.8-35.2 112.2-5.4 0.2 0.2 0.6 0.2 0.8 0.4l159.8 146.4c13 11.8 33.4 11 45.2-2 12-13 11-33.2-2-45.2l-52.2-47.8 291.2-236.4c5.8-4.8 11-10 15.8-15.4v387l-109.2 109.2c-11.8 12-28.2 18.8-45.2 18.8zM1088 703.6v-447.8c0-35.4 28.6-64 64-64h128v511.8h-192zM1184 255.8c-17.6 0-32 14.4-32 32s14.4 32 32 32 32-14.4 32-32-14.4-32-32-32zM0 192h128c35.4 0 64 28.6 64 64v447.6h-192v-511.6zM96 319.8c17.6 0 32-14.4 32-32s-14.4-32-32-32-32 14.4-32 32c0 17.8 14.4 32 32 32zM967.8 282.6l-298.6 242.4-60-55c-59.4-54.2-150.4-49-203.4 8.8-53.8 58.8-49.6 149.8 8.8 203.4l163.6 149.8h-167.6c-17 0-33.2-6.8-45.2-18.8l-109.4-109.2v-447.8h36.6l181-163.8c54.8-44.6 135.4-36.2 180 18.6l0.4 0.4 35.8-31c31.8-26 78.8-21 104.6 10.8l62.8 77.2 10.8-8.8c27.4-22.2 67.8-18.2 90 9.4l19 23.4c22.4 27.6 18.2 67.8-9.2 90.2z" />
<glyph unicode="&#xeaa8;" glyph-name="hands-helping" horiz-adv-x="1280" d="M976 576h-304v-112c0-79.4-64.6-144-144-144s-144 64.6-144 144v243.2l-129.8-78c-38.6-23-62.2-64.8-62.2-109.6v-94.6l-160-92.4c-30.6-17.6-41.2-56.8-23.4-87.4l160-277.2c17.6-30.6 56.8-41 87.4-23.4l206.8 119.4h273.2c70.6 0 128 57.4 128 128h32c35.4 0 64 28.6 64 64v128h16c26.6 0 48 21.4 48 48v96c0 26.6-21.4 48-48 48zM1271.4 650.8l-160 277.2c-17.6 30.6-56.8 41-87.4 23.4l-206.8-119.4h-204.4c-24 0-47.4-6.8-67.8-19.4l-67-41.8c-18.8-11.6-30-32.2-30-54.2v-252.6c0-44.2 35.8-80 80-80s80 35.8 80 80v176h368c61.8 0 112-50.2 112-112v-57l160 92.4c30.6 17.8 41 56.8 23.4 87.4z" />
</font>
</defs>
</svg>
